Jinko-Heavy.ufo
<glyph name="exclam" format="1">
  <advance width="720"/>
  <unicode hex="0021"/>
  <outline>
    <contour>
      <point x="384" y="-29" type="curve" smooth="yes"/>
      <point x="509" y="-29"/>
      <point x="613" y="76"/>
      <point x="613" y="198" type="curve" smooth="yes"/>
      <point x="613" y="321"/>
      <point x="509" y="424"/>
      <point x="384" y="424" type="curve" smooth="yes"/>
      <point x="262" y="424"/>
      <point x="157" y="321"/>
      <point x="157" y="198" type="curve" smooth="yes"/>
      <point x="157" y="76"/>
      <point x="262" y="-29"/>
    </contour>
    <contour>
      <point x="258" y="546" type="line"/>
      <point x="512" y="546" type="line"/>
      <point x="592" y="1481" type="line"/>
      <point x="168" y="1481" type="line"/>
    </contour>
  </outline>
</glyph>
<glyph name="dollar" format="1">
  <advance width="1284"/>
  <unicode hex="0024"/>
  <outline>
    <contour>
      <point x="538" y="-396" type="line"/>
      <point x="722" y="-396" type="line"/>
      <point x="722" y="3" type="line"/>
      <point x="1031" y="14"/>
      <point x="1222" y="238"/>
      <point x="1222" y="459" type="curve" smooth="yes"/>
      <point x="1222" y="701"/>
      <point x="1043" y="821"/>
      <point x="714" y="869" type="curve"/>
      <point x="714" y="1030" type="line"/>
      <point x="824" y="1024"/>
      <point x="913" y="1006"/>
      <point x="980" y="970" type="curve"/>
      <point x="1043" y="970" type="line"/>
      <point x="1096" y="1255" type="line"/>
      <point x="1025" y="1301"/>
      <point x="824" y="1344"/>
      <point x="722" y="1345" type="curve"/>
      <point x="722" y="1570" type="line"/>
      <point x="538" y="1570" type="line"/>
      <point x="538" y="1343" type="line"/>
      <point x="248" y="1308"/>
      <point x="79" y="1156"/>
      <point x="79" y="960" type="curve" smooth="yes"/>
      <point x="79" y="621"/>
      <point x="382" y="552"/>
      <point x="544" y="517" type="curve"/>
      <point x="544" y="320" type="line"/>
      <point x="418" y="326"/>
      <point x="249" y="390"/>
      <point x="222" y="391" type="curve"/>
      <point x="167" y="391" type="line"/>
      <point x="103" y="120" type="line"/>
      <point x="184" y="57"/>
      <point x="437" y="1"/>
      <point x="538" y="1" type="curve"/>
    </contour>
    <contour>
      <point x="730" y="323" type="curve" smooth="yes"/>
      <point x="722" y="320"/>
      <point x="714" y="319"/>
      <point x="707" y="318" type="curve"/>
      <point x="707" y="503" type="line"/>
      <point x="750" y="509"/>
      <point x="782" y="464"/>
      <point x="782" y="428" type="curve" smooth="yes"/>
      <point x="782" y="358"/>
      <point x="750" y="333"/>
    </contour>
    <contour>
      <point x="556" y="886" type="line"/>
      <point x="494" y="905"/>
      <point x="513" y="927"/>
      <point x="513" y="960" type="curve" smooth="yes"/>
      <point x="513" y="1025"/>
      <point x="552" y="1037"/>
      <point x="556" y="1031" type="curve"/>
    </contour>
  </outline>
</glyph>
<glyph name="ampersand" format="1">
  <advance width="1660"/>
  <unicode hex="0026"/>
  <outline>
    <contour>
      <point x="667" y="-25" type="curve" smooth="yes"/>
      <point x="829" y="-25"/>
      <point x="966" y="24"/>
      <point x="1103" y="104" type="curve"/>
      <point x="1081" y="125"/>
      <point x="1234" y="0"/>
      <point x="1234" y="0" type="curve"/>
      <point x="1808" y="0" type="line"/>
      <point x="1808" y="0"/>
      <point x="1448" y="304"/>
      <point x="1371" y="376" type="curve"/>
      <point x="1508" y="504"/>
      <point x="1523" y="647"/>
      <point x="1548" y="774" type="curve"/>
      <point x="1116" y="803" type="line"/>
      <point x="1113" y="786"/>
      <point x="1119" y="692"/>
      <point x="1114" y="613" type="curve"/>
      <point x="1019" y="709"/>
      <point x="986" y="745"/>
      <point x="892" y="842" type="curve"/>
      <point x="1073" y="883"/>
      <point x="1182" y="1016"/>
      <point x="1187" y="1170" type="curve"/>
      <point x="1192" y="1362"/>
      <point x="1017" y="1505"/>
      <point x="695" y="1505" type="curve"/>
      <point x="342" y="1505"/>
      <point x="205" y="1322"/>
      <point x="205" y="1154" type="curve" smooth="yes"/>
      <point x="205" y="1013"/>
      <point x="262" y="936"/>
      <point x="351" y="854" type="curve"/>
      <point x="231" y="777"/>
      <point x="100" y="645"/>
      <point x="100" y="444" type="curve" smooth="yes"/>
      <point x="100" y="183"/>
      <point x="314" y="-25"/>
    </contour>
    <contour>
      <point x="676" y="276" type="curve" smooth="yes"/>
      <point x="681" y="286"/>
      <point x="557" y="352"/>
      <point x="557" y="504" type="curve" smooth="yes"/>
      <point x="557" y="510"/>
      <point x="531" y="605"/>
      <point x="561" y="653" type="curve"/>
      <point x="669" y="545"/>
      <point x="792" y="422"/>
      <point x="901" y="320" type="curve"/>
      <point x="835" y="281"/>
      <point x="762" y="260"/>
    </contour>
    <contour>
      <point x="737" y="999" type="curve"/>
      <point x="703" y="1023"/>
      <point x="644" y="1101"/>
      <point x="639" y="1151" type="curve"/>
      <point x="633" y="1256"/>
      <point x="703" y="1249"/>
      <point x="680" y="1249" type="curve"/>
      <point x="643" y="1249"/>
      <point x="744" y="1262"/>
      <point x="744" y="1136" type="curve" smooth="yes"/>
      <point x="744" y="1088"/>
      <point x="742" y="1052"/>
    </contour>
  </outline>
</glyph>
<glyph name="parenleft" format="1">
  <advance width="945"/>
  <unicode hex="0028"/>
  <outline>
    <contour>
      <point x="514" y="-349" type="curve"/>
      <point x="886" y="-349" type="line"/>
      <point x="881" y="-329"/>
      <point x="868" y="-306"/>
      <point x="863" y="-287" type="curve"/>
      <point x="668" y="-75"/>
      <point x="506" y="235"/>
      <point x="506" y="611" type="curve" smooth="yes"/>
      <point x="506" y="1005"/>
      <point x="688" y="1306"/>
      <point x="863" y="1510" type="curve"/>
      <point x="868" y="1531"/>
      <point x="881" y="1552"/>
      <point x="886" y="1573" type="curve"/>
      <point x="514" y="1573" type="line"/>
      <point x="283" y="1313"/>
      <point x="129" y="1040"/>
      <point x="129" y="611" type="curve" smooth="yes"/>
      <point x="129" y="226"/>
      <point x="287" y="-89"/>
    </contour>
  </outline>
</glyph>
<glyph name="asterisk" format="1">
  <advance width="1168"/>
  <unicode hex="002A"/>
  <outline>
    <contour>
      <point x="532" y="597" type="curve"/>
      <point x="588" y="597"/>
      <point x="641" y="624"/>
      <point x="657" y="675" type="curve"/>
      <point x="657" y="765"/>
      <point x="611" y="878"/>
      <point x="595" y="968" type="curve"/>
      <point x="656" y="915"/>
      <point x="729" y="822"/>
      <point x="798" y="780" type="curve" smooth="yes"/>
      <point x="817" y="766"/>
      <point x="840" y="760"/>
      <point x="862" y="758" type="curve"/>
      <point x="908" y="771"/>
      <point x="950" y="819"/>
      <point x="961" y="869" type="curve"/>
      <point x="952" y="992"/>
      <point x="748" y="994"/>
      <point x="636" y="1045" type="curve"/>
      <point x="747" y="1094"/>
      <point x="956" y="1102"/>
      <point x="961" y="1222" type="curve"/>
      <point x="950" y="1271"/>
      <point x="910" y="1321"/>
      <point x="862" y="1334" type="curve"/>
      <point x="774" y="1328"/>
      <point x="686" y="1202"/>
      <point x="612" y="1133" type="curve" smooth="yes"/>
      <point x="606" y="1128"/>
      <point x="597" y="1123"/>
      <point x="594" y="1120" type="curve"/>
      <point x="609" y="1206"/>
      <point x="656" y="1306"/>
      <point x="656" y="1392" type="curve" smooth="yes"/>
      <point x="656" y="1450"/>
      <point x="614" y="1486"/>
      <point x="572" y="1495" type="curve" smooth="yes"/>
      <point x="516" y="1495"/>
      <point x="467" y="1467"/>
      <point x="451" y="1417" type="curve"/>
      <point x="451" y="1323"/>
      <point x="499" y="1215"/>
      <point x="511" y="1120" type="curve"/>
      <point x="447" y="1171"/>
      <point x="377" y="1267"/>
      <point x="306" y="1310" type="curve" smooth="yes"/>
      <point x="287" y="1323"/>
      <point x="264" y="1332"/>
      <point x="242" y="1334" type="curve"/>
      <point x="194" y="1321"/>
      <point x="156" y="1271"/>
      <point x="144" y="1222" type="curve"/>
      <point x="149" y="1102"/>
      <point x="352" y="1094"/>
      <point x="468" y="1045" type="curve"/>
      <point x="355" y="997"/>
      <point x="154" y="991"/>
      <point x="144" y="869" type="curve"/>
      <point x="156" y="819"/>
      <point x="194" y="771"/>
      <point x="242" y="758" type="curve"/>
      <point x="325" y="764"/>
      <point x="418" y="884"/>
      <point x="492" y="955" type="curve" smooth="yes"/>
      <point x="498" y="960"/>
      <point x="505" y="965"/>
      <point x="508" y="968" type="curve"/>
      <point x="495" y="886"/>
      <point x="451" y="784"/>
      <point x="451" y="701" type="curve" smooth="yes"/>
      <point x="451" y="639"/>
      <point x="490" y="607"/>
    </contour>
  </outline>
</glyph>
<glyph name="comma" format="1">
  <advance width="591"/>
  <unicode hex="002c"/>
  <outline>
    <contour>
      <point x="106" y="-241" type="line" smooth="no"/>
      <point x="182" y="352" type="line" smooth="no"/>
      <point x="577" y="352" type="line" smooth="no"/>
      <point x="292" y="-241" type="line" smooth="no"/>
    </contour>
  </outline>
</glyph>
<glyph name="hyphen" format="1">
  <advance width="845"/>
  <unicode hex="002D"/>
  <outline>
    <contour>
      <point x="98" y="429" type="line"/>
      <point x="749" y="429" type="line"/>
      <point x="749" y="758" type="line"/>
      <point x="98" y="758" type="line"/>
    </contour>
  </outline>
</glyph>
<glyph name="period" format="1">
  <advance width="776"/>
  <unicode hex="002E"/>
  <outline>
    <contour>
      <point x="398" y="-29" type="curve" smooth="yes"/>
      <point x="523" y="-29"/>
      <point x="627" y="76"/>
      <point x="627" y="198" type="curve" smooth="yes"/>
      <point x="627" y="321"/>
      <point x="523" y="424"/>
      <point x="398" y="424" type="curve" smooth="yes"/>
      <point x="276" y="424"/>
      <point x="172" y="321"/>
      <point x="172" y="198" type="curve" smooth="yes"/>
      <point x="172" y="76"/>
      <point x="276" y="-29"/>
    </contour>
  </outline>
</glyph>
<glyph name="slash" format="1">
  <advance width="1276"/>
  <unicode hex="002F"/>
  <outline>
    <contour>
      <point x="188" y="0" type="line"/>
      <point x="481" y="0" type="line"/>
      <point x="1041" y="1482" type="line"/>
      <point x="746" y="1482" type="line"/>
    </contour>
  </outline>
</glyph>
<glyph name="zero" format="1">
  <advance width="1341"/>
  <unicode hex="0030"/>
  <outline>
    <contour>
      <point x="669" y="-25" type="curve" smooth="yes"/>
      <point x="219" y="-25"/>
      <point x="99" y="334"/>
      <point x="99" y="799" type="curve" smooth="yes"/>
      <point x="99" y="1211"/>
      <point x="258" y="1503"/>
      <point x="669" y="1503" type="curve" smooth="yes"/>
      <point x="1123" y="1503"/>
      <point x="1242" y="1122"/>
      <point x="1242" y="681" type="curve" smooth="yes"/>
      <point x="1242" y="240"/>
      <point x="1072" y="-25"/>
    </contour>
    <contour>
      <point x="669" y="263" type="curve" smooth="yes"/>
      <point x="776" y="263"/>
      <point x="787" y="406"/>
      <point x="787" y="742" type="curve" smooth="yes"/>
      <point x="787" y="1054"/>
      <point x="771" y="1170"/>
      <point x="669" y="1170" type="curve" smooth="yes"/>
      <point x="570" y="1170"/>
      <point x="551" y="1052"/>
      <point x="551" y="742" type="curve" smooth="yes"/>
      <point x="551" y="413"/>
      <point x="566" y="263"/>
    </contour>
  </outline>
</glyph>
<glyph name="two" format="1">
  <advance width="1309"/>
  <unicode hex="0032"/>
  <outline>
    <contour>
      <point x="129" y="0" type="line"/>
      <point x="1247" y="0" type="line"/>
      <point x="1247" y="338" type="line"/>
      <point x="714" y="338" type="line"/>
      <point x="811" y="391"/>
      <point x="1180" y="733"/>
      <point x="1180" y="1032" type="curve" smooth="yes"/>
      <point x="1180" y="1319"/>
      <point x="977" y="1503"/>
      <point x="620" y="1503" type="curve" smooth="yes"/>
      <point x="450" y="1503"/>
      <point x="230" y="1433"/>
      <point x="153" y="1367" type="curve"/>
      <point x="244" y="1050" type="line"/>
      <point x="296" y="1068"/>
      <point x="433" y="1135"/>
      <point x="574" y="1135" type="curve" smooth="yes"/>
      <point x="617" y="1135"/>
      <point x="719" y="1118"/>
      <point x="719" y="971" type="curve"/>
      <point x="719" y="742"/>
      <point x="235" y="351"/>
      <point x="129" y="263" type="curve"/>
    </contour>
  </outline>
</glyph>
<glyph name="three" format="1">
  <advance width="1249"/>
  <unicode hex="0033"/>
  <outline>
    <contour>
      <point x="586" y="-25" type="curve" smooth="yes"/>
      <point x="984" y="-25"/>
      <point x="1205" y="158"/>
      <point x="1205" y="447" type="curve" smooth="yes"/>
      <point x="1205" y="620"/>
      <point x="1071" y="733"/>
      <point x="931" y="767" type="curve"/>
      <point x="1048" y="810"/>
      <point x="1151" y="915"/>
      <point x="1151" y="1101" type="curve" smooth="yes"/>
      <point x="1151" y="1315"/>
      <point x="975" y="1503"/>
      <point x="596" y="1503" type="curve" smooth="yes"/>
      <point x="418" y="1503"/>
      <point x="204" y="1430"/>
      <point x="109" y="1364" type="curve"/>
      <point x="109" y="989" type="line"/>
      <point x="194" y="989" type="line"/>
      <point x="194" y="989"/>
      <point x="288" y="1159"/>
      <point x="527" y="1159" type="curve" smooth="yes"/>
      <point x="539" y="1159"/>
      <point x="706" y="1154"/>
      <point x="706" y="1044" type="curve" smooth="yes"/>
      <point x="706" y="895"/>
      <point x="582" y="897"/>
      <point x="453" y="897" type="curve" smooth="yes"/>
      <point x="426" y="897" type="line"/>
      <point x="426" y="630" type="line"/>
      <point x="574" y="630" type="line" smooth="yes"/>
      <point x="704" y="630"/>
      <point x="755" y="594"/>
      <point x="755" y="484" type="curve" smooth="yes"/>
      <point x="755" y="329"/>
      <point x="564" y="322"/>
      <point x="483" y="322" type="curve" smooth="yes"/>
      <point x="270" y="322"/>
      <point x="189" y="486"/>
      <point x="189" y="486" type="curve"/>
      <point x="109" y="486" type="line"/>
      <point x="109" y="101" type="line"/>
      <point x="227" y="16"/>
      <point x="357" y="-25"/>
    </contour>
  </outline>
</glyph>
<glyph name="nine" format="1">
  <advance width="1262"/>
  <unicode hex="0039"/>
  <outline>
    <contour>
      <point x="221" y="14" type="curve" smooth="yes"/>
      <point x="911" y="12"/>
      <point x="1173" y="337"/>
      <point x="1182" y="871" type="curve" smooth="yes"/>
      <point x="1182" y="1304"/>
      <point x="963" y="1517"/>
      <point x="612" y="1517" type="curve" smooth="yes"/>
      <point x="271" y="1517"/>
      <point x="43" y="1304"/>
      <point x="43" y="979" type="curve" smooth="yes"/>
      <point x="43" y="587"/>
      <point x="298" y="506"/>
      <point x="430" y="506" type="curve" smooth="yes"/>
      <point x="469" y="506"/>
      <point x="558" y="504"/>
      <point x="648" y="549" type="curve"/>
      <point x="555" y="196"/>
      <point x="-29" y="280"/>
      <point x="151" y="295" type="curve"/>
      <point x="185" y="176"/>
      <point x="193" y="137"/>
    </contour>
    <contour>
      <point x="632" y="808" type="curve" smooth="yes"/>
      <point x="555" y="808"/>
      <point x="496" y="824"/>
      <point x="496" y="1018" type="curve" smooth="yes"/>
      <point x="496" y="1206"/>
      <point x="608" y="1214"/>
      <point x="615" y="1214" type="curve" smooth="yes"/>
      <point x="702" y="1214"/>
      <point x="734" y="1150"/>
      <point x="734" y="966" type="curve" smooth="yes"/>
      <point x="734" y="869"/>
      <point x="681" y="807"/>
    </contour>
  </outline>
</glyph>
<glyph name="less" format="1">
  <advance width="1611"/>
  <unicode hex="003C"/>
  <outline>
    <contour>
      <point x="1403" y="-16" type="line"/>
      <point x="1403" y="235" type="line"/>
      <point x="1403" y="235"/>
      <point x="606" y="540"/>
      <point x="479" y="588" type="curve"/>
      <point x="620" y="634"/>
      <point x="1403" y="920"/>
      <point x="1403" y="920" type="curve"/>
      <point x="1403" y="1166" type="line"/>
      <point x="178" y="680" type="line"/>
      <point x="178" y="473" type="line"/>
    </contour>
  </outline>
</glyph>
<glyph name="equal" format="1">
  <advance width="1584"/>
  <unicode hex="003D"/>
  <outline>
    <contour>
      <point x="213" y="227" type="line"/>
      <point x="1376" y="227" type="line"/>
      <point x="1376" y="474" type="line"/>
      <point x="213" y="474" type="line"/>
    </contour>
    <contour>
      <point x="213" y="679" type="line"/>
      <point x="1376" y="679" type="line"/>
      <point x="1376" y="926" type="line"/>
      <point x="213" y="926" type="line"/>
    </contour>
  </outline>
</glyph>
<glyph name="greater" format="1">
  <advance width="1611"/>
  <unicode hex="003E"/>
  <outline>
    <contour>
      <point x="214" y="-16" type="line"/>
      <point x="1437" y="472" type="line"/>
      <point x="1437" y="681" type="line"/>
      <point x="214" y="1166" type="line"/>
      <point x="214" y="920" type="line"/>
      <point x="1085" y="576" type="line"/>
      <point x="214" y="235" type="line"/>
    </contour>
  </outline>
</glyph>
<glyph name="question" format="1">
  <advance width="1256"/>
  <unicode hex="003f"/>
  <outline>
    <contour>
      <point x="590" y="-32" type="curve" smooth="yes"/>
      <point x="454" y="-32"/>
      <point x="343" y="79"/>
      <point x="343" y="214" type="curve" smooth="yes"/>
      <point x="343" y="348"/>
      <point x="454" y="459"/>
      <point x="590" y="459" type="curve" smooth="yes"/>
      <point x="724" y="459"/>
      <point x="835" y="348"/>
      <point x="835" y="214" type="curve" smooth="yes"/>
      <point x="835" y="79"/>
      <point x="724" y="-32"/>
    </contour>
    <contour>
      <point x="739" y="544" type="curve" smooth="no"/>
      <point x="464" y="513" type="line" smooth="no"/>
      <point x="620" y="690"/>
      <point x="719" y="806"/>
      <point x="719" y="960" type="curve" smooth="yes"/>
      <point x="719" y="1113"/>
      <point x="606" y="1160"/>
      <point x="524" y="1160" type="curve" smooth="yes"/>
      <point x="393" y="1160"/>
      <point x="247" y="1078"/>
      <point x="199" y="1023" type="curve" smooth="no"/>
      <point x="199" y="1368" type="line" smooth="no"/>
      <point x="261" y="1404"/>
      <point x="408" y="1503"/>
      <point x="596" y="1503" type="curve" smooth="yes"/>
      <point x="925" y="1503"/>
      <point x="1170" y="1336"/>
      <point x="1170" y="1091" type="curve" smooth="yes"/>
      <point x="1170" y="772"/>
      <point x="936" y="663"/>
    </contour>
  </outline>
</glyph>
<glyph name="A" format="1">
  <advance width="1498"/>
  <unicode hex="0041"/>
  <outline>
    <contour>
      <point x="-7" y="0" type="line"/>
      <point x="468" y="0" type="line"/>
      <point x="539" y="237" type="line"/>
      <point x="951" y="237" type="line"/>
      <point x="1024" y="0" type="line"/>
      <point x="1505" y="0" type="line"/>
      <point x="986" y="1481" type="line"/>
      <point x="523" y="1481" type="line"/>
    </contour>
    <contour>
      <point x="638" y="559" type="line"/>
      <point x="748" y="949" type="line"/>
      <point x="854" y="559" type="line"/>
    </contour>
  </outline>
</glyph>
<glyph name="C" format="1">
  <advance width="1462"/>
  <unicode hex="0043"/>
  <outline>
    <contour>
      <point x="885" y="-28" type="curve" smooth="yes"/>
      <point x="368" y="-28"/>
      <point x="99" y="251"/>
      <point x="99" y="738" type="curve" smooth="yes"/>
      <point x="99" y="1226"/>
      <point x="422" y="1500"/>
      <point x="885" y="1500" type="curve" smooth="yes"/>
      <point x="1075" y="1500"/>
      <point x="1221" y="1468"/>
      <point x="1380" y="1398" type="curve" smooth="no"/>
      <point x="1289" y="1039" type="line" smooth="no"/>
      <point x="1289" y="1039"/>
      <point x="1135" y="1157"/>
      <point x="941" y="1157" type="curve" smooth="yes"/>
      <point x="673" y="1157"/>
      <point x="573" y="966"/>
      <point x="573" y="734" type="curve" smooth="yes"/>
      <point x="573" y="479"/>
      <point x="670" y="313"/>
      <point x="947" y="313" type="curve" smooth="yes"/>
      <point x="1120" y="313"/>
      <point x="1301" y="432"/>
      <point x="1301" y="432" type="curve" smooth="no"/>
      <point x="1380" y="102" type="line" smooth="no"/>
      <point x="1203" y="11"/>
      <point x="1078" y="-28"/>
    </contour>
  </outline>
</glyph>
<glyph name="D" format="1">
  <advance width="1601"/>
  <unicode hex="0044"/>
  <outline>
    <contour>
      <point x="607" y="326" type="line"/>
      <point x="607" y="1155" type="line"/>
      <point x="757" y="1155" type="line" smooth="yes"/>
      <point x="938" y="1155"/>
      <point x="1027" y="1021"/>
      <point x="1027" y="735" type="curve" smooth="yes"/>
      <point x="1027" y="427"/>
      <point x="916" y="326"/>
      <point x="669" y="326" type="curve" smooth="yes"/>
    </contour>
    <contour>
      <point x="146" y="0" type="line"/>
      <point x="628" y="0" type="line" smooth="yes"/>
      <point x="1160" y="0"/>
      <point x="1502" y="164"/>
      <point x="1502" y="737" type="curve" smooth="yes"/>
      <point x="1502" y="1306"/>
      <point x="1180" y="1481"/>
      <point x="638" y="1481" type="curve" smooth="yes"/>
      <point x="146" y="1481" type="line"/>
    </contour>
  </outline>
</glyph>
<glyph name="F" format="1">
  <advance width="1280"/>
  <unicode hex="0046"/>
  <outline>
    <contour>
      <point x="146" y="0" type="line"/>
      <point x="604" y="0" type="line"/>
      <point x="604" y="577" type="line"/>
      <point x="1191" y="577" type="line"/>
      <point x="1191" y="900" type="line"/>
      <point x="604" y="900" type="line"/>
      <point x="604" y="1155" type="line"/>
      <point x="1253" y="1155" type="line"/>
      <point x="1253" y="1481" type="line"/>
      <point x="146" y="1481" type="line"/>
    </contour>
  </outline>
</glyph>
<glyph name="G" format="1">
  <advance width="1543"/>
  <unicode hex="0047"/>
  <outline>
    <contour>
      <point x="866" y="-21" type="curve" smooth="yes"/>
      <point x="377" y="-21"/>
      <point x="99" y="268"/>
      <point x="99" y="740" type="curve" smooth="yes"/>
      <point x="99" y="1235"/>
      <point x="368" y="1505"/>
      <point x="861" y="1505" type="curve" smooth="yes"/>
      <point x="1159" y="1505"/>
      <point x="1257" y="1458"/>
      <point x="1456" y="1341" type="curve" smooth="no"/>
      <point x="1370" y="1010" type="line" smooth="yes"/>
      <point x="1370" y="1013"/>
      <point x="1179" y="1154"/>
      <point x="970" y="1154" type="curve" smooth="yes"/>
      <point x="681" y="1154"/>
      <point x="573" y="1000"/>
      <point x="573" y="746" type="curve" smooth="yes"/>
      <point x="573" y="488"/>
      <point x="662" y="316"/>
      <point x="865" y="316" type="curve" smooth="yes"/>
      <point x="995" y="316"/>
      <point x="1096" y="337"/>
      <point x="1098" y="333" type="curve" smooth="no"/>
      <point x="1098" y="550" type="line" smooth="no"/>
      <point x="774" y="550" type="line" smooth="no"/>
      <point x="774" y="830" type="line" smooth="no"/>
      <point x="1423" y="830" type="line" smooth="no"/>
      <point x="1423" y="157" type="line" smooth="no"/>
      <point x="1371" y="60"/>
      <point x="1093" y="-21"/>
    </contour>
  </outline>
</glyph>
<glyph name="H" format="1">
  <advance width="1615"/>
  <unicode hex="0048"/>
  <outline>
    <contour>
      <point x="146" y="0" type="line"/>
      <point x="607" y="0" type="line"/>
      <point x="607" y="617" type="line"/>
      <point x="1008" y="617" type="line"/>
      <point x="1008" y="0" type="line"/>
      <point x="1469" y="0" type="line"/>
      <point x="1469" y="1481" type="line"/>
      <point x="1008" y="1481" type="line"/>
      <point x="1008" y="941" type="line"/>
      <point x="607" y="941" type="line"/>
      <point x="607" y="1481" type="line"/>
      <point x="146" y="1481" type="line"/>
    </contour>
  </outline>
</glyph>
<glyph name="I" format="1">
  <advance width="979"/>
  <unicode hex="0049"/>
  <outline>
    <contour>
      <point x="41" y="0" type="line" smooth="no"/>
      <point x="41" y="326" type="line" smooth="no"/>
      <point x="263" y="326" type="line" smooth="no"/>
      <point x="263" y="1155" type="line" smooth="no"/>
      <point x="41" y="1155" type="line" smooth="no"/>
      <point x="41" y="1481" type="line" smooth="no"/>
      <point x="946" y="1481" type="line" smooth="no"/>
      <point x="946" y="1155" type="line" smooth="no"/>
      <point x="724" y="1155" type="line" smooth="no"/>
      <point x="724" y="326" type="line" smooth="no"/>
      <point x="946" y="326" type="line" smooth="no"/>
      <point x="946" y="0" type="line" smooth="no"/>
    </contour>
  </outline>
</glyph>
<glyph name="J" format="1">
  <advance width="1221"/>
  <unicode hex="004A"/>
  <outline>
    <contour>
      <point x="425" y="-21" type="curve" smooth="yes"/>
      <point x="767" y="-21"/>
      <point x="1074" y="169"/>
      <point x="1074" y="473" type="curve" smooth="yes"/>
      <point x="1074" y="1481" type="line"/>
      <point x="327" y="1481" type="line"/>
      <point x="327" y="1108" type="line"/>
      <point x="612" y="1108" type="line"/>
      <point x="612" y="682" type="line" smooth="yes"/>
      <point x="612" y="439"/>
      <point x="474" y="338"/>
      <point x="316" y="338" type="curve" smooth="yes"/>
      <point x="237" y="338"/>
      <point x="149" y="355"/>
      <point x="56" y="396" type="curve"/>
      <point x="-15" y="69" type="line"/>
      <point x="102" y="-2"/>
      <point x="237" y="-21"/>
    </contour>
  </outline>
</glyph>
<glyph name="K" format="1">
  <advance width="1567"/>
  <unicode hex="004b"/>
  <outline>
    <contour>
      <point x="146" y="0" type="line" smooth="no"/>
      <point x="146" y="1481" type="line" smooth="no"/>
      <point x="604" y="1481" type="line" smooth="no"/>
      <point x="604" y="859" type="line" smooth="no"/>
      <point x="606" y="859" type="line" smooth="no"/>
      <point x="687" y="992" type="line" smooth="no"/>
      <point x="831" y="1202"/>
      <point x="859" y="1239"/>
      <point x="1029" y="1481" type="curve" smooth="no"/>
      <point x="1549" y="1481" type="line" smooth="no"/>
      <point x="1057" y="796" type="line" smooth="no"/>
      <point x="1579" y="0" type="line" smooth="no"/>
      <point x="1025" y="0" type="line" smooth="no"/>
      <point x="1074" y="-83"/>
      <point x="856" y="271"/>
      <point x="754" y="446" type="curve" smooth="no"/>
      <point x="671" y="576" type="line" smooth="no"/>
      <point x="604" y="474" type="line" smooth="no"/>
      <point x="604" y="0" type="line" smooth="no"/>
    </contour>
  </outline>
</glyph>
<glyph name="L" format="1">
  <advance width="1258"/>
  <unicode hex="004c"/>
  <outline>
    <contour>
      <point x="146" y="0" type="line" smooth="no"/>
      <point x="146" y="1481" type="line" smooth="no"/>
      <point x="607" y="1481" type="line" smooth="no"/>
      <point x="607" y="326" type="line" smooth="no"/>
      <point x="1209" y="326" type="line" smooth="no"/>
      <point x="1209" y="0" type="line" smooth="no"/>
    </contour>
  </outline>
</glyph>
<glyph name="M" format="1">
  <advance width="1914"/>
  <unicode hex="004D"/>
  <outline>
    <contour>
      <point x="146" y="0" type="line"/>
      <point x="580" y="0" type="line"/>
      <point x="580" y="617" type="line"/>
      <point x="580" y="690"/>
      <point x="576" y="785"/>
      <point x="576" y="785" type="curve"/>
      <point x="781" y="233" type="line"/>
      <point x="1108" y="233" type="line"/>
      <point x="1314" y="785" type="line"/>
      <point x="1314" y="785"/>
      <point x="1312" y="690"/>
      <point x="1312" y="617" type="curve"/>
      <point x="1312" y="0" type="line"/>
      <point x="1768" y="0" type="line"/>
      <point x="1768" y="1481" type="line"/>
      <point x="1262" y="1481" type="line"/>
      <point x="954" y="707" type="line"/>
      <point x="648" y="1481" type="line"/>
      <point x="146" y="1481" type="line"/>
    </contour>
  </outline>
</glyph>
<glyph name="N" format="1">
  <advance width="1615"/>
  <unicode hex="004E"/>
  <outline>
    <contour>
      <point x="146" y="0" type="line"/>
      <point x="566" y="0" type="line"/>
      <point x="566" y="504" type="line"/>
      <point x="566" y="582"/>
      <point x="562" y="858"/>
      <point x="562" y="858" type="curve"/>
      <point x="1048" y="0" type="line"/>
      <point x="1468" y="0" type="line"/>
      <point x="1468" y="1481" type="line"/>
      <point x="1050" y="1481" type="line"/>
      <point x="1050" y="1136" type="line"/>
      <point x="1059" y="827" type="line"/>
      <point x="1074" y="806"/>
      <point x="645" y="1481"/>
      <point x="645" y="1481" type="curve"/>
      <point x="146" y="1481" type="line"/>
    </contour>
  </outline>
</glyph>
<glyph name="O" format="1">
  <advance width="1606"/>
  <unicode hex="004F"/>
  <outline>
    <contour>
      <point x="806" y="319" type="curve" smooth="yes"/>
      <point x="645" y="319"/>
      <point x="572" y="442"/>
      <point x="572" y="740" type="curve" smooth="yes"/>
      <point x="572" y="1041"/>
      <point x="647" y="1158"/>
      <point x="806" y="1158" type="curve" smooth="yes"/>
      <point x="966" y="1158"/>
      <point x="1035" y="1037"/>
      <point x="1035" y="740" type="curve" smooth="yes"/>
      <point x="1035" y="453"/>
      <point x="970" y="319"/>
    </contour>
    <contour>
      <point x="804" y="-25" type="curve" smooth="yes"/>
      <point x="1262" y="-25"/>
      <point x="1506" y="243"/>
      <point x="1506" y="740" type="curve" smooth="yes"/>
      <point x="1506" y="1242"/>
      <point x="1260" y="1505"/>
      <point x="804" y="1505" type="curve" smooth="yes"/>
      <point x="349" y="1505"/>
      <point x="99" y="1240"/>
      <point x="99" y="740" type="curve" smooth="yes"/>
      <point x="99" y="243"/>
      <point x="346" y="-25"/>
    </contour>
  </outline>
</glyph>
<glyph name="P" format="1">
  <advance width="1463"/>
  <unicode hex="0050"/>
  <outline>
    <contour>
      <point x="146" y="0" type="line"/>
      <point x="607" y="0" type="line"/>
      <point x="607" y="471" type="line"/>
      <point x="859" y="471" type="line" smooth="yes"/>
      <point x="1234" y="471"/>
      <point x="1447" y="712"/>
      <point x="1447" y="1008" type="curve" smooth="yes"/>
      <point x="1447" y="1349"/>
      <point x="1158" y="1481"/>
      <point x="881" y="1481" type="curve" smooth="yes"/>
      <point x="146" y="1481" type="line"/>
    </contour>
    <contour>
      <point x="607" y="789" type="line"/>
      <point x="607" y="1164" type="line"/>
      <point x="664" y="1164" type="line" smooth="yes"/>
      <point x="731" y="1164"/>
      <point x="976" y="1188"/>
      <point x="976" y="1002" type="curve" smooth="yes"/>
      <point x="976" y="787"/>
      <point x="765" y="789"/>
      <point x="562" y="789" type="curve" smooth="yes"/>
    </contour>
  </outline>
</glyph>
<glyph name="Q" format="1">
  <advance width="1606"/>
  <unicode hex="0051"/>
  <outline>
    <contour>
      <point x="1047" y="-423" type="line"/>
      <point x="1249" y="-335" type="line"/>
      <point x="923" y="498" type="line"/>
      <point x="922" y="498"/>
      <point x="682" y="498"/>
      <point x="682" y="498" type="curve"/>
    </contour>
    <component base="O"/>
  </outline>
</glyph>
<glyph name="R" format="1">
  <advance width="1515"/>
  <unicode hex="0052"/>
  <outline>
    <contour>
      <point x="146" y="0" type="line"/>
      <point x="604" y="0" type="line"/>
      <point x="604" y="534" type="line"/>
      <point x="681" y="534" type="line"/>
      <point x="1004" y="0" type="line"/>
      <point x="1482" y="0" type="line"/>
      <point x="1482" y="94" type="line"/>
      <point x="1112" y="615" type="line"/>
      <point x="1322" y="699"/>
      <point x="1430" y="818"/>
      <point x="1430" y="1042" type="curve" smooth="yes"/>
      <point x="1430" y="1517"/>
      <point x="938" y="1481"/>
      <point x="612" y="1481" type="curve" smooth="yes"/>
      <point x="146" y="1481" type="line"/>
    </contour>
    <contour>
      <point x="604" y="851" type="line"/>
      <point x="604" y="1164" type="line"/>
      <point x="642" y="1164" type="line" smooth="yes"/>
      <point x="885" y="1164"/>
      <point x="965" y="1154"/>
      <point x="965" y="1017" type="curve" smooth="yes"/>
      <point x="965" y="867"/>
      <point x="873" y="851"/>
      <point x="663" y="851" type="curve" smooth="yes"/>
    </contour>
  </outline>
</glyph>
<glyph name="U" format="1">
  <advance width="1577"/>
  <unicode hex="0055"/>
  <outline>
    <contour>
      <point x="788" y="-25" type="curve" smooth="yes"/>
      <point x="1197" y="-25"/>
      <point x="1445" y="184"/>
      <point x="1445" y="522" type="curve" smooth="yes"/>
      <point x="1445" y="1481" type="line"/>
      <point x="985" y="1481" type="line"/>
      <point x="985" y="575" type="line" smooth="yes"/>
      <point x="985" y="412"/>
      <point x="918" y="322"/>
      <point x="787" y="322" type="curve" smooth="yes"/>
      <point x="647" y="322"/>
      <point x="593" y="418"/>
      <point x="593" y="572" type="curve" smooth="yes"/>
      <point x="593" y="1481" type="line"/>
      <point x="132" y="1481" type="line"/>
      <point x="132" y="521" type="line" smooth="yes"/>
      <point x="132" y="176"/>
      <point x="396" y="-25"/>
    </contour>
  </outline>
</glyph>
<glyph name="V" format="1">
  <advance width="1337"/>
  <unicode hex="0056"/>
  <outline>
    <contour>
      <point x="466" y="0" type="line"/>
      <point x="864" y="0" type="line"/>
      <point x="1365" y="1481" type="line"/>
      <point x="906" y="1481" type="line"/>
      <point x="786" y="1094"/>
      <point x="850" y="1272"/>
      <point x="732" y="882" type="curve"/>
      <point x="702" y="778"/>
      <point x="701" y="766"/>
      <point x="673" y="661" type="curve"/>
      <point x="672" y="661" type="line"/>
      <point x="672" y="661"/>
      <point x="633" y="812"/>
      <point x="608" y="879" type="curve"/>
      <point x="486" y="1264"/>
      <point x="563" y="1096"/>
      <point x="443" y="1481" type="curve"/>
      <point x="-30" y="1481" type="line"/>
    </contour>
  </outline>
</glyph>
<glyph name="W" format="1">
  <advance width="2096"/>
  <unicode hex="0057"/>
  <outline>
    <contour>
      <point x="382" y="0" type="line"/>
      <point x="862" y="0" type="line"/>
      <point x="1040" y="703" type="line"/>
      <point x="1121" y="449"/>
      <point x="1114" y="426"/>
      <point x="1231" y="0" type="curve"/>
      <point x="1715" y="0" type="line"/>
      <point x="2091" y="1481" type="line"/>
      <point x="1614" y="1481" type="line"/>
      <point x="1533" y="1108"/>
      <point x="1562" y="1151"/>
      <point x="1482" y="777" type="curve"/>
      <point x="1459" y="673"/>
      <point x="1478" y="727"/>
      <point x="1455" y="625" type="curve"/>
      <point x="1431" y="699"/>
      <point x="1437" y="691"/>
      <point x="1415" y="784" type="curve"/>
      <point x="1245" y="1481" type="line"/>
      <point x="853" y="1481" type="line"/>
      <point x="760" y="1134"/>
      <point x="788" y="1211"/>
      <point x="695" y="865" type="curve"/>
      <point x="633" y="623" type="line"/>
      <point x="630" y="623" type="line"/>
      <point x="604" y="801" type="line"/>
      <point x="530" y="1169"/>
      <point x="561" y="1114"/>
      <point x="487" y="1481" type="curve"/>
      <point x="4" y="1481" type="line"/>
    </contour>
  </outline>
</glyph>
<glyph name="X" format="1">
  <advance width="1401"/>
  <unicode hex="0058"/>
  <outline>
    <contour>
      <point x="-25" y="0" type="line"/>
      <point x="482" y="0" type="line"/>
      <point x="482" y="0"/>
      <point x="582" y="217"/>
      <point x="593" y="233" type="curve"/>
      <point x="640" y="311"/>
      <point x="641" y="326"/>
      <point x="688" y="403" type="curve"/>
      <point x="734" y="329"/>
      <point x="738" y="315"/>
      <point x="785" y="241" type="curve"/>
      <point x="900" y="0" type="line"/>
      <point x="1439" y="0" type="line"/>
      <point x="984" y="780" type="line"/>
      <point x="1386" y="1481" type="line"/>
      <point x="879" y="1481" type="line"/>
      <point x="819" y="1319" type="line"/>
      <point x="766" y="1232"/>
      <point x="758" y="1209"/>
      <point x="708" y="1128" type="curve"/>
      <point x="659" y="1214"/>
      <point x="646" y="1241"/>
      <point x="597" y="1326" type="curve"/>
      <point x="520" y="1460"/>
      <point x="616" y="1345"/>
      <point x="539" y="1481" type="curve"/>
      <point x="-4" y="1481" type="line"/>
      <point x="417" y="755" type="line"/>
    </contour>
  </outline>
</glyph>
<glyph name="Y" format="1">
  <advance width="1418"/>
  <unicode hex="0059"/>
  <outline>
    <contour>
      <point x="490" y="0" type="line"/>
      <point x="944" y="0" type="line"/>
      <point x="944" y="576" type="line"/>
      <point x="1409" y="1481" type="line"/>
      <point x="945" y="1481" type="line"/>
      <point x="724" y="1005" type="line"/>
      <point x="490" y="1481" type="line"/>
      <point x="8" y="1481" type="line"/>
      <point x="490" y="563" type="line"/>
    </contour>
  </outline>
</glyph>
<glyph name="Z" format="1">
  <advance width="1279"/>
  <unicode hex="005A"/>
  <outline>
    <contour>
      <point x="28" y="0" type="line"/>
      <point x="1262" y="0" type="line"/>
      <point x="1262" y="326" type="line"/>
      <point x="608" y="326" type="line"/>
      <point x="1229" y="1161" type="line"/>
      <point x="1229" y="1481" type="line"/>
      <point x="63" y="1481" type="line"/>
      <point x="63" y="1155" type="line"/>
      <point x="651" y="1155" type="line"/>
      <point x="28" y="320" type="line"/>
    </contour>
  </outline>
</glyph>
<glyph name="bracketleft" format="1">
  <advance width="924"/>
  <unicode hex="005b"/>
  <outline>
    <contour>
      <point x="175" y="-362" type="line" smooth="no"/>
      <point x="175" y="1546" type="line" smooth="no"/>
      <point x="816" y="1546" type="line" smooth="no"/>
      <point x="816" y="1298" type="line" smooth="no"/>
      <point x="520" y="1298" type="line" smooth="no"/>
      <point x="520" y="-116" type="line" smooth="no"/>
      <point x="816" y="-116" type="line" smooth="no"/>
      <point x="816" y="-362" type="line" smooth="no"/>
    </contour>
  </outline>
</glyph>
<glyph name="backslash" format="1">
  <advance width="1277"/>
  <unicode hex="005C"/>
  <outline>
    <contour>
      <point x="827" y="0" type="line"/>
      <point x="1123" y="0" type="line"/>
      <point x="542" y="1481" type="line"/>
      <point x="249" y="1481" type="line"/>
    </contour>
  </outline>
</glyph>
<glyph name="bracketright" format="1">
  <advance width="924"/>
  <unicode hex="005d"/>
  <outline>
    <contour>
      <point x="108" y="-362" type="line" smooth="no"/>
      <point x="108" y="-116" type="line" smooth="no"/>
      <point x="406" y="-116" type="line" smooth="no"/>
      <point x="406" y="1298" type="line" smooth="no"/>
      <point x="108" y="1298" type="line" smooth="no"/>
      <point x="108" y="1546" type="line" smooth="no"/>
      <point x="752" y="1546" type="line" smooth="no"/>
      <point x="752" y="-362" type="line" smooth="no"/>
    </contour>
  </outline>
</glyph>
<glyph name="underscore" format="1">
  <advance width="1477"/>
  <unicode hex="005f"/>
  <outline>
    <contour>
      <point x="-23" y="-400" type="line" smooth="no"/>
      <point x="-23" y="-199" type="line" smooth="no"/>
      <point x="1503" y="-199" type="line" smooth="no"/>
      <point x="1503" y="-400" type="line" smooth="no"/>
    </contour>
  </outline>
</glyph>
<glyph name="grave" format="1">
  <advance width="1039"/>
  <unicode hex="0060"/>
  <outline>
    <contour>
      <point x="516" y="1186" type="line"/>
      <point x="795" y="1186" type="line"/>
      <point x="578" y="1534" type="line"/>
      <point x="197" y="1534" type="line"/>
    </contour>
  </outline>
</glyph>
<glyph name="a" format="1">
  <advance width="1184"/>
  <unicode hex="0061"/>
  <outline>
    <contour>
      <point x="380" y="-15" type="curve" smooth="yes"/>
      <point x="525" y="-15"/>
      <point x="636" y="56"/>
      <point x="699" y="219" type="curve"/>
      <point x="699" y="0" type="line"/>
      <point x="1087" y="0" type="line"/>
      <point x="1087" y="733" type="line" smooth="yes"/>
      <point x="1087" y="975"/>
      <point x="882" y="1059"/>
      <point x="521" y="1059" type="curve" smooth="yes"/>
      <point x="363" y="1059"/>
      <point x="162" y="999"/>
      <point x="131" y="986" type="curve"/>
      <point x="197" y="729" type="line"/>
      <point x="252" y="754"/>
      <point x="403" y="786"/>
      <point x="506" y="786" type="curve" smooth="yes"/>
      <point x="675" y="786"/>
      <point x="701" y="749"/>
      <point x="701" y="654" type="curve"/>
      <point x="343" y="654"/>
      <point x="52" y="621"/>
      <point x="52" y="306" type="curve"/>
      <point x="52" y="124"/>
      <point x="181" y="-15"/>
    </contour>
    <contour>
      <point x="536" y="225" type="curve" smooth="yes"/>
      <point x="475" y="225"/>
      <point x="448" y="290"/>
      <point x="448" y="332" type="curve" smooth="yes"/>
      <point x="448" y="466"/>
      <point x="564" y="476"/>
      <point x="701" y="493" type="curve"/>
      <point x="701" y="246"/>
      <point x="580" y="225"/>
    </contour>
  </outline>
</glyph>
<glyph name="b" format="1">
  <advance width="1311"/>
  <unicode hex="0062"/>
  <outline>
    <contour>
      <point x="805" y="-16" type="curve" smooth="yes"/>
      <point x="1084" y="-16"/>
      <point x="1229" y="230"/>
      <point x="1229" y="522" type="curve" smooth="yes"/>
      <point x="1229" y="848"/>
      <point x="1145" y="1061"/>
      <point x="846" y="1061" type="curve" smooth="yes"/>
      <point x="711" y="1061"/>
      <point x="617" y="1005"/>
      <point x="509" y="936" type="curve"/>
      <point x="509" y="1441" type="line"/>
      <point x="121" y="1441" type="line"/>
      <point x="121" y="0" type="line"/>
      <point x="509" y="0" type="line"/>
      <point x="509" y="132" type="line"/>
      <point x="588" y="44"/>
      <point x="683" y="-16"/>
    </contour>
    <contour>
      <point x="605" y="284" type="curve" smooth="yes"/>
      <point x="573" y="284"/>
      <point x="476" y="303"/>
      <point x="509" y="283" type="curve"/>
      <point x="509" y="700" type="line"/>
      <point x="489" y="683"/>
      <point x="562" y="761"/>
      <point x="651" y="761" type="curve" smooth="yes"/>
      <point x="794" y="761"/>
      <point x="826" y="679"/>
      <point x="826" y="527" type="curve" smooth="yes"/>
      <point x="826" y="368"/>
      <point x="775" y="284"/>
    </contour>
  </outline>
</glyph>
<glyph name="c" format="1">
  <advance width="1109"/>
  <unicode hex="0063"/>
  <outline>
    <contour>
      <point x="666" y="-25" type="curve" smooth="yes"/>
      <point x="810" y="-25"/>
      <point x="956" y="24"/>
      <point x="1063" y="83" type="curve"/>
      <point x="1004" y="335" type="line"/>
      <point x="952" y="301"/>
      <point x="844" y="255"/>
      <point x="732" y="255" type="curve" smooth="yes"/>
      <point x="628" y="255"/>
      <point x="485" y="307"/>
      <point x="485" y="517" type="curve" smooth="yes"/>
      <point x="485" y="716"/>
      <point x="604" y="785"/>
      <point x="728" y="785" type="curve" smooth="yes"/>
      <point x="808" y="785"/>
      <point x="943" y="743"/>
      <point x="1000" y="697" type="curve"/>
      <point x="1058" y="954" type="line"/>
      <point x="922" y="1029"/>
      <point x="783" y="1061"/>
      <point x="659" y="1061" type="curve" smooth="yes"/>
      <point x="382" y="1061"/>
      <point x="82" y="922"/>
      <point x="82" y="518" type="curve" smooth="yes"/>
      <point x="82" y="138"/>
      <point x="360" y="-25"/>
    </contour>
  </outline>
</glyph>
<glyph name="e" format="1">
  <advance width="1226"/>
  <unicode hex="0065"/>
  <outline>
    <contour>
      <point x="710" y="-25" type="curve" smooth="yes"/>
      <point x="916" y="-25"/>
      <point x="1034" y="19"/>
      <point x="1133" y="85" type="curve"/>
      <point x="1087" y="337" type="line"/>
      <point x="1045" y="337" type="line"/>
      <point x="966" y="298"/>
      <point x="847" y="255"/>
      <point x="744" y="255" type="curve" smooth="yes"/>
      <point x="606" y="255"/>
      <point x="491" y="273"/>
      <point x="476" y="430" type="curve"/>
      <point x="1153" y="430" type="line"/>
      <point x="1153" y="617" type="line" smooth="yes"/>
      <point x="1153" y="901"/>
      <point x="954" y="1061"/>
      <point x="652" y="1061" type="curve" smooth="yes"/>
      <point x="308" y="1061"/>
      <point x="80" y="878"/>
      <point x="80" y="515" type="curve" smooth="yes"/>
      <point x="80" y="131"/>
      <point x="317" y="-25"/>
    </contour>
    <contour>
      <point x="467" y="659" type="line"/>
      <point x="473" y="762"/>
      <point x="543" y="819"/>
      <point x="630" y="819" type="curve"/>
      <point x="735" y="819"/>
      <point x="813" y="795"/>
      <point x="818" y="659" type="curve"/>
    </contour>
  </outline>
</glyph>
<glyph name="f" format="1">
  <advance width="708"/>
  <unicode hex="0066"/>
  <outline>
    <contour>
      <point x="124" y="0" type="line"/>
      <point x="511" y="0" type="line"/>
      <point x="511" y="793" type="line"/>
      <point x="746" y="793" type="line"/>
      <point x="746" y="1035" type="line"/>
      <point x="502" y="1035" type="line"/>
      <point x="502" y="1137"/>
      <point x="564" y="1175"/>
      <point x="622" y="1175" type="curve" smooth="yes"/>
      <point x="649" y="1175"/>
      <point x="681" y="1174"/>
      <point x="762" y="1166" type="curve"/>
      <point x="762" y="1430" type="line"/>
      <point x="705" y="1436"/>
      <point x="622" y="1444"/>
      <point x="548" y="1444" type="curve" smooth="yes"/>
      <point x="279" y="1444"/>
      <point x="124" y="1328"/>
      <point x="124" y="1077" type="curve" smooth="yes"/>
      <point x="124" y="1035" type="line"/>
      <point x="-1" y="1035" type="line"/>
      <point x="-1" y="793" type="line"/>
      <point x="124" y="793" type="line"/>
    </contour>
  </outline>
</glyph>
<glyph name="g" format="1">
  <advance width="1233"/>
  <unicode hex="0067"/>
  <outline>
    <contour>
      <point x="547" y="-408" type="curve" smooth="yes"/>
      <point x="842" y="-408"/>
      <point x="1140" y="-298"/>
      <point x="1140" y="74" type="curve" smooth="yes"/>
      <point x="1140" y="1035" type="line"/>
      <point x="736" y="1035" type="line"/>
      <point x="740" y="904" type="line"/>
      <point x="651" y="1025"/>
      <point x="577" y="1060"/>
      <point x="469" y="1060" type="curve" smooth="yes"/>
      <point x="196" y="1060"/>
      <point x="82" y="843"/>
      <point x="82" y="542" type="curve" smooth="yes"/>
      <point x="82" y="195"/>
      <point x="213" y="0"/>
      <point x="535" y="0" type="curve" smooth="yes"/>
      <point x="615" y="0"/>
      <point x="723" y="46"/>
      <point x="748" y="113" type="curve"/>
      <point x="748" y="117"/>
      <point x="748" y="75"/>
      <point x="748" y="79" type="curve" smooth="yes"/>
      <point x="747" y="-96"/>
      <point x="689" y="-120"/>
      <point x="510" y="-120" type="curve" smooth="yes"/>
      <point x="456" y="-120"/>
      <point x="331" y="-99"/>
      <point x="222" y="-51" type="curve"/>
      <point x="159" y="-325" type="line"/>
      <point x="254" y="-363"/>
      <point x="394" y="-408"/>
    </contour>
    <contour>
      <point x="631" y="286" type="curve" smooth="yes"/>
      <point x="481" y="286"/>
      <point x="483" y="378"/>
      <point x="483" y="551" type="curve" smooth="yes"/>
      <point x="483" y="657"/>
      <point x="535" y="765"/>
      <point x="663" y="765" type="curve" smooth="yes"/>
      <point x="664" y="765"/>
      <point x="697" y="773"/>
      <point x="740" y="755" type="curve"/>
      <point x="740" y="320" type="line"/>
      <point x="709" y="307"/>
      <point x="684" y="286"/>
    </contour>
  </outline>
</glyph>
<glyph name="h" format="1">
  <advance width="1253"/>
  <unicode hex="0068"/>
  <outline>
    <contour>
      <point x="124" y="0" type="line"/>
      <point x="512" y="0" type="line"/>
      <point x="512" y="571" type="line" smooth="yes"/>
      <point x="512" y="677"/>
      <point x="565" y="741"/>
      <point x="626" y="741" type="curve" smooth="yes"/>
      <point x="752" y="741"/>
      <point x="757" y="661"/>
      <point x="757" y="506" type="curve" smooth="yes"/>
      <point x="757" y="0" type="line"/>
      <point x="1145" y="0" type="line"/>
      <point x="1145" y="675" type="line" smooth="yes"/>
      <point x="1145" y="921"/>
      <point x="1017" y="1059"/>
      <point x="798" y="1059" type="curve" smooth="yes"/>
      <point x="553" y="1059"/>
      <point x="479" y="799"/>
      <point x="512" y="867" type="curve"/>
      <point x="512" y="1411" type="line"/>
      <point x="124" y="1411" type="line"/>
    </contour>
  </outline>
</glyph>
<glyph name="i" format="1">
  <advance width="693"/>
  <unicode hex="0069"/>
  <outline>
    <contour>
      <point x="153" y="0" type="line"/>
      <point x="541" y="0" type="line"/>
      <point x="541" y="1038" type="line"/>
      <point x="153" y="1038" type="line"/>
    </contour>
    <contour>
      <point x="346" y="1192" type="curve" smooth="yes"/>
      <point x="494" y="1192"/>
      <point x="569" y="1296"/>
      <point x="569" y="1403" type="curve" smooth="yes"/>
      <point x="569" y="1509"/>
      <point x="495" y="1619"/>
      <point x="346" y="1619" type="curve" smooth="yes"/>
      <point x="198" y="1619"/>
      <point x="124" y="1510"/>
      <point x="124" y="1405" type="curve" smooth="yes"/>
      <point x="124" y="1298"/>
      <point x="197" y="1192"/>
    </contour>
  </outline>
</glyph>
<glyph name="j" format="1">
  <advance width="710"/>
  <unicode hex="006A"/>
  <outline>
    <contour>
      <point x="162" y="-405" type="curve" smooth="yes"/>
      <point x="393" y="-405"/>
      <point x="588" y="-301"/>
      <point x="588" y="-81" type="curve" smooth="yes"/>
      <point x="588" y="1038" type="line"/>
      <point x="201" y="1038" type="line"/>
      <point x="201" y="122" type="line" smooth="yes"/>
      <point x="201" y="-83"/>
      <point x="135" y="-119"/>
      <point x="33" y="-119" type="curve" smooth="yes"/>
      <point x="2" y="-119"/>
      <point x="-97" y="-112"/>
      <point x="-79" y="-113" type="curve"/>
      <point x="-79" y="-388" type="line"/>
      <point x="-47" y="-391"/>
      <point x="59" y="-405"/>
    </contour>
    <contour>
      <point x="402" y="1186" type="curve" smooth="yes"/>
      <point x="550" y="1186"/>
      <point x="621" y="1289"/>
      <point x="621" y="1396" type="curve" smooth="yes"/>
      <point x="621" y="1502"/>
      <point x="551" y="1607"/>
      <point x="402" y="1607" type="curve" smooth="yes"/>
      <point x="254" y="1607"/>
      <point x="181" y="1501"/>
      <point x="181" y="1396" type="curve" smooth="yes"/>
      <point x="181" y="1289"/>
      <point x="254" y="1186"/>
    </contour>
  </outline>
</glyph>
<glyph name="k" format="1">
  <advance width="1239"/>
  <unicode hex="006B"/>
  <outline>
    <contour>
      <point x="121" y="0" type="line"/>
      <point x="509" y="0" type="line"/>
      <point x="509" y="355" type="line"/>
      <point x="576" y="445" type="line"/>
      <point x="801" y="0" type="line"/>
      <point x="1230" y="0" type="line"/>
      <point x="1230" y="87" type="line"/>
      <point x="912" y="621" type="line"/>
      <point x="1203" y="994" type="line"/>
      <point x="1203" y="1038" type="line"/>
      <point x="779" y="1038" type="line"/>
      <point x="509" y="655" type="line"/>
      <point x="509" y="1441" type="line"/>
      <point x="121" y="1441" type="line"/>
    </contour>
  </outline>
</glyph>
<glyph name="l" format="1">
  <advance width="684"/>
  <unicode hex="006C"/>
  <outline>
    <contour>
      <point x="544" y="3" type="curve" smooth="yes"/>
      <point x="632" y="3" type="line"/>
      <point x="632" y="255" type="line"/>
      <point x="537" y="255"/>
      <point x="511" y="321"/>
      <point x="511" y="385" type="curve" smooth="yes"/>
      <point x="511" y="1438" type="line"/>
      <point x="124" y="1438" type="line"/>
      <point x="124" y="360" type="line" smooth="yes"/>
      <point x="124" y="163"/>
      <point x="149" y="3"/>
    </contour>
  </outline>
</glyph>
<glyph name="m" format="1">
  <advance width="1870"/>
  <unicode hex="006D"/>
  <outline>
    <contour>
      <point x="121" y="0" type="line"/>
      <point x="509" y="0" type="line"/>
      <point x="509" y="661" type="line"/>
      <point x="509" y="716"/>
      <point x="574" y="735"/>
      <point x="621" y="735" type="curve" smooth="yes"/>
      <point x="734" y="735"/>
      <point x="754" y="679"/>
      <point x="754" y="511" type="curve" smooth="yes"/>
      <point x="754" y="0" type="line"/>
      <point x="1141" y="0" type="line"/>
      <point x="1141" y="661" type="line" smooth="yes"/>
      <point x="1141" y="700"/>
      <point x="1224" y="735"/>
      <point x="1251" y="735" type="curve" smooth="yes"/>
      <point x="1376" y="735"/>
      <point x="1386" y="675"/>
      <point x="1386" y="486" type="curve" smooth="yes"/>
      <point x="1386" y="0" type="line"/>
      <point x="1774" y="0" type="line"/>
      <point x="1774" y="682" type="line" smooth="yes"/>
      <point x="1774" y="948"/>
      <point x="1620" y="1059"/>
      <point x="1438" y="1059" type="curve" smooth="yes"/>
      <point x="1315" y="1059"/>
      <point x="1168" y="1004"/>
      <point x="1101" y="852" type="curve"/>
      <point x="1053" y="1002"/>
      <point x="944" y="1059"/>
      <point x="829" y="1059" type="curve" smooth="yes"/>
      <point x="701" y="1059"/>
      <point x="585" y="983"/>
      <point x="509" y="850" type="curve"/>
      <point x="509" y="1038" type="line"/>
      <point x="121" y="1038" type="line"/>
    </contour>
  </outline>
</glyph>
<glyph name="n" format="1">
  <advance width="1246"/>
  <unicode hex="006E"/>
  <outline>
    <contour>
      <point x="124" y="0" type="line"/>
      <point x="512" y="0" type="line"/>
      <point x="512" y="617" type="line" smooth="yes"/>
      <point x="512" y="662"/>
      <point x="544" y="735"/>
      <point x="621" y="735" type="curve" smooth="yes"/>
      <point x="736" y="735"/>
      <point x="760" y="672"/>
      <point x="760" y="500" type="curve" smooth="yes"/>
      <point x="760" y="0" type="line"/>
      <point x="1148" y="0" type="line"/>
      <point x="1148" y="701" type="line" smooth="yes"/>
      <point x="1148" y="947"/>
      <point x="972" y="1059"/>
      <point x="822" y="1059" type="curve" smooth="yes"/>
      <point x="677" y="1059"/>
      <point x="553" y="942"/>
      <point x="512" y="835" type="curve"/>
      <point x="512" y="1038" type="line"/>
      <point x="124" y="1038" type="line"/>
    </contour>
  </outline>
</glyph>
<glyph name="o" format="1">
  <advance width="1258"/>
  <unicode hex="006F"/>
  <outline>
    <contour>
      <point x="633" y="249" type="curve" smooth="yes"/>
      <point x="550" y="249"/>
      <point x="483" y="264"/>
      <point x="483" y="515" type="curve" smooth="yes"/>
      <point x="483" y="771"/>
      <point x="555" y="787"/>
      <point x="629" y="787" type="curve" smooth="yes"/>
      <point x="701" y="787"/>
      <point x="774" y="758"/>
      <point x="774" y="516" type="curve" smooth="yes"/>
      <point x="774" y="303"/>
      <point x="721" y="249"/>
    </contour>
    <contour>
      <point x="629" y="-28" type="curve" smooth="yes"/>
      <point x="1015" y="-28"/>
      <point x="1178" y="181"/>
      <point x="1178" y="516" type="curve" smooth="yes"/>
      <point x="1178" y="853"/>
      <point x="1015" y="1059"/>
      <point x="629" y="1059" type="curve" smooth="yes"/>
      <point x="236" y="1059"/>
      <point x="80" y="855"/>
      <point x="80" y="517" type="curve" smooth="yes"/>
      <point x="80" y="180"/>
      <point x="239" y="-28"/>
    </contour>
  </outline>
</glyph>
<glyph name="p" format="1">
  <advance width="1256"/>
  <unicode hex="0070"/>
  <outline>
    <contour>
      <point x="121" y="-392" type="line"/>
      <point x="509" y="-392" type="line"/>
      <point x="509" y="43" type="line"/>
      <point x="606" y="-11"/>
      <point x="656" y="-20"/>
      <point x="758" y="-20" type="curve" smooth="yes"/>
      <point x="1040" y="-20"/>
      <point x="1176" y="228"/>
      <point x="1176" y="530" type="curve" smooth="yes"/>
      <point x="1176" y="850"/>
      <point x="1110" y="1061"/>
      <point x="830" y="1061" type="curve" smooth="yes"/>
      <point x="693" y="1061"/>
      <point x="574" y="991"/>
      <point x="509" y="867" type="curve"/>
      <point x="509" y="1038" type="line"/>
      <point x="121" y="1038" type="line"/>
    </contour>
    <contour>
      <point x="577" y="260" type="curve" smooth="yes"/>
      <point x="509" y="260"/>
      <point x="494" y="269"/>
      <point x="509" y="263" type="curve"/>
      <point x="509" y="698" type="line"/>
      <point x="536" y="732"/>
      <point x="549" y="759"/>
      <point x="627" y="759" type="curve" smooth="yes"/>
      <point x="764" y="759"/>
      <point x="772" y="684"/>
      <point x="772" y="526" type="curve" smooth="yes"/>
      <point x="772" y="345"/>
      <point x="735" y="260"/>
    </contour>
  </outline>
</glyph>
<glyph name="q" format="1">
  <advance width="1254"/>
  <unicode hex="0071"/>
  <outline>
    <contour>
      <point x="665" y="258" type="curve" smooth="yes"/>
      <point x="727" y="258"/>
      <point x="740" y="278"/>
      <point x="747" y="307" type="curve" smooth="no"/>
      <point x="747" y="741" type="line" smooth="no"/>
      <point x="723" y="753"/>
      <point x="705" y="761"/>
      <point x="639" y="761" type="curve" smooth="yes"/>
      <point x="500" y="761"/>
      <point x="485" y="691"/>
      <point x="485" y="535" type="curve" smooth="yes"/>
      <point x="485" y="382"/>
      <point x="488" y="258"/>
    </contour>
    <contour>
      <point x="747" y="-392" type="line" smooth="no"/>
      <point x="747" y="72" type="line" smooth="no"/>
      <point x="660" y="10"/>
      <point x="604" y="-21"/>
      <point x="500" y="-21" type="curve" smooth="yes"/>
      <point x="209" y="-21"/>
      <point x="82" y="222"/>
      <point x="82" y="540" type="curve" smooth="yes"/>
      <point x="82" y="846"/>
      <point x="159" y="1061"/>
      <point x="513" y="1061" type="curve" smooth="yes"/>
      <point x="607" y="1061"/>
      <point x="704" y="996"/>
      <point x="747" y="897" type="curve" smooth="no"/>
      <point x="747" y="1038" type="line" smooth="no"/>
      <point x="1135" y="1038" type="line" smooth="no"/>
      <point x="1135" y="-392" type="line" smooth="no"/>
    </contour>
  </outline>
</glyph>
<glyph name="r" format="1">
  <advance width="910"/>
  <unicode hex="0072"/>
  <outline>
    <contour>
      <point x="124" y="0" type="line" smooth="no"/>
      <point x="124" y="1038" type="line" smooth="no"/>
      <point x="512" y="1038" type="line" smooth="no"/>
      <point x="512" y="904" type="line" smooth="no"/>
      <point x="518" y="912"/>
      <point x="525" y="919"/>
      <point x="533" y="927" type="curve" smooth="yes"/>
      <point x="597" y="983"/>
      <point x="697" y="1039"/>
      <point x="810" y="1039" type="curve" smooth="yes"/>
      <point x="846" y="1039"/>
      <point x="888" y="1028"/>
      <point x="915" y="1015" type="curve" smooth="no"/>
      <point x="856" y="679" type="line" smooth="no"/>
      <point x="824" y="694"/>
      <point x="784" y="710"/>
      <point x="725" y="710" type="curve" smooth="yes"/>
      <point x="665" y="710"/>
      <point x="558" y="695"/>
      <point x="512" y="633" type="curve" smooth="no"/>
      <point x="512" y="0" type="line" smooth="no"/>
    </contour>
  </outline>
</glyph>
<glyph name="t" format="1">
  <advance width="777"/>
  <unicode hex="0074"/>
  <outline>
    <contour>
      <point x="475" y="-13" type="curve" smooth="yes"/>
      <point x="585" y="-13"/>
      <point x="661" y="-8"/>
      <point x="726" y="5" type="curve"/>
      <point x="726" y="275" type="line"/>
      <point x="670" y="267"/>
      <point x="645" y="264"/>
      <point x="634" y="264" type="curve" smooth="yes"/>
      <point x="571" y="264"/>
      <point x="506" y="286"/>
      <point x="506" y="376" type="curve" smooth="yes"/>
      <point x="506" y="783" type="line"/>
      <point x="726" y="783" type="line"/>
      <point x="726" y="1038" type="line"/>
      <point x="506" y="1038" type="line"/>
      <point x="506" y="1365" type="line"/>
      <point x="118" y="1295" type="line"/>
      <point x="118" y="1038" type="line"/>
      <point x="-7" y="1038" type="line"/>
      <point x="-7" y="783" type="line"/>
      <point x="118" y="783" type="line"/>
      <point x="118" y="328" type="line" smooth="yes"/>
      <point x="118" y="89"/>
      <point x="226" y="-13"/>
    </contour>
  </outline>
</glyph>
<glyph name="u" format="1">
  <advance width="1253"/>
  <unicode hex="0075"/>
  <outline>
    <contour>
      <point x="441" y="-21" type="curve" smooth="yes"/>
      <point x="556" y="-21"/>
      <point x="683" y="28"/>
      <point x="746" y="171" type="curve"/>
      <point x="746" y="0" type="line"/>
      <point x="1133" y="0" type="line"/>
      <point x="1133" y="1038" type="line"/>
      <point x="746" y="1038" type="line"/>
      <point x="746" y="383" type="line"/>
      <point x="746" y="324"/>
      <point x="676" y="297"/>
      <point x="641" y="297" type="curve" smooth="yes"/>
      <point x="523" y="297"/>
      <point x="502" y="377"/>
      <point x="502" y="549" type="curve" smooth="yes"/>
      <point x="502" y="1038" type="line"/>
      <point x="99" y="1038" type="line"/>
      <point x="99" y="339" type="line" smooth="yes"/>
      <point x="99" y="93"/>
      <point x="273" y="-21"/>
    </contour>
  </outline>
</glyph>
<glyph name="v" format="1">
  <advance width="1067"/>
  <unicode hex="0076"/>
  <outline>
    <contour>
      <point x="328" y="0" type="line"/>
      <point x="734" y="0" type="line"/>
      <point x="1093" y="1038" type="line"/>
      <point x="696" y="1038" type="line"/>
      <point x="617" y="773"/>
      <point x="653" y="836"/>
      <point x="572" y="571" type="curve"/>
      <point x="551" y="504"/>
      <point x="560" y="515"/>
      <point x="539" y="448" type="curve"/>
      <point x="536" y="448" type="line"/>
      <point x="506" y="570" type="line"/>
      <point x="425" y="839"/>
      <point x="473" y="769"/>
      <point x="388" y="1038" type="curve"/>
      <point x="-26" y="1038" type="line"/>
    </contour>
  </outline>
</glyph>
<glyph name="w" format="1">
  <advance width="1733"/>
  <unicode hex="0077"/>
  <outline>
    <contour>
      <point x="311" y="0" type="line"/>
      <point x="705" y="0" type="line"/>
      <point x="866" y="650" type="line"/>
      <point x="868" y="650" type="line"/>
      <point x="1024" y="0" type="line"/>
      <point x="1423" y="0" type="line"/>
      <point x="1742" y="1038" type="line"/>
      <point x="1336" y="1038" type="line"/>
      <point x="1228" y="501" type="line"/>
      <point x="1213" y="447"/>
      <point x="1219" y="459"/>
      <point x="1208" y="404" type="curve"/>
      <point x="1198" y="434"/>
      <point x="1194" y="440"/>
      <point x="1174" y="515" type="curve"/>
      <point x="1154" y="589"/>
      <point x="1034" y="1038"/>
      <point x="1034" y="1038" type="curve"/>
      <point x="724" y="1038" type="line"/>
      <point x="724" y="1038"/>
      <point x="628" y="769"/>
      <point x="542" y="460" type="curve"/>
      <point x="524" y="395" type="line"/>
      <point x="523" y="395" type="line"/>
      <point x="516" y="455" type="line"/>
      <point x="496" y="545"/>
      <point x="400" y="1038"/>
      <point x="400" y="1038" type="curve"/>
      <point x="-6" y="1038" type="line"/>
    </contour>
  </outline>
</glyph>
<glyph name="x" format="1">
  <advance width="1147"/>
  <unicode hex="0078"/>
  <outline>
    <contour>
      <point x="-26" y="0" type="line"/>
      <point x="431" y="0" type="line"/>
      <point x="496" y="97"/>
      <point x="445" y="46"/>
      <point x="511" y="145" type="curve"/>
      <point x="573" y="248" type="line"/>
      <point x="637" y="148" type="line" smooth="yes"/>
      <point x="702" y="50"/>
      <point x="648" y="100"/>
      <point x="713" y="0" type="curve"/>
      <point x="1174" y="0" type="line"/>
      <point x="811" y="533" type="line"/>
      <point x="1160" y="1038" type="line"/>
      <point x="699" y="1038" type="line"/>
      <point x="637" y="941"/>
      <point x="694" y="993"/>
      <point x="631" y="896" type="curve"/>
      <point x="573" y="798" type="line"/>
      <point x="546" y="845"/>
      <point x="544" y="854"/>
      <point x="516" y="900" type="curve"/>
      <point x="450" y="1038" type="line"/>
      <point x="-11" y="1038" type="line"/>
      <point x="340" y="525" type="line"/>
    </contour>
  </outline>
</glyph>
<glyph name="y" format="1">
  <advance width="1129"/>
  <unicode hex="0079"/>
  <outline>
    <contour>
      <point x="195" y="-393" type="curve"/>
      <point x="611" y="-393" type="line"/>
      <point x="612" y="-393"/>
      <point x="699" y="-238"/>
      <point x="748" y="-104" type="curve" smooth="yes"/>
      <point x="1148" y="1038" type="line"/>
      <point x="744" y="1038" type="line"/>
      <point x="594" y="479" type="line"/>
      <point x="423" y="1038" type="line"/>
      <point x="9" y="1038" type="line"/>
      <point x="379" y="55" type="line"/>
      <point x="319" y="-121"/>
      <point x="260" y="-260"/>
    </contour>
  </outline>
</glyph>
<glyph name="z" format="1">
  <advance width="1011"/>
  <unicode hex="007a"/>
  <outline>
    <contour>
      <point x="62" y="0" type="line" smooth="no"/>
      <point x="62" y="240" type="line" smooth="no"/>
      <point x="437" y="743" type="line" smooth="no"/>
      <point x="90" y="743" type="line" smooth="no"/>
      <point x="90" y="1038" type="line" smooth="no"/>
      <point x="929" y="1038" type="line" smooth="no"/>
      <point x="929" y="795" type="line" smooth="no"/>
      <point x="576" y="307" type="line" smooth="no"/>
      <point x="934" y="307" type="line" smooth="no"/>
      <point x="934" y="0" type="line" smooth="no"/>
    </contour>
  </outline>
</glyph>
<glyph name="bar" format="1">
  <advance width="1557"/>
  <unicode hex="007c"/>
  <outline>
    <contour>
      <point x="629" y="-447" type="line" smooth="no"/>
      <point x="629" y="1481" type="line" smooth="no"/>
      <point x="931" y="1481" type="line" smooth="no"/>
      <point x="931" y="-447" type="line" smooth="no"/>
    </contour>
  </outline>
</glyph>
<glyph name="cent" format="1">
  <advance width="1216"/>
  <unicode hex="00a2"/>
  <outline>
    <contour>
      <point x="748" y="1059" type="line" smooth="no"/>
      <point x="856" y="1050"/>
      <point x="973" y="1017"/>
      <point x="1088" y="954" type="curve" smooth="no"/>
      <point x="1030" y="697" type="line" smooth="no"/>
      <point x="973" y="743"/>
      <point x="838" y="785"/>
      <point x="758" y="785" type="curve" smooth="yes"/>
      <point x="748" y="785" type="line" smooth="no"/>
      <point x="748" y="255" type="line" smooth="no"/>
      <point x="762" y="255" type="line" smooth="yes"/>
      <point x="874" y="255"/>
      <point x="982" y="301"/>
      <point x="1034" y="335" type="curve" smooth="no"/>
      <point x="1093" y="83" type="line" smooth="no"/>
      <point x="999" y="31"/>
      <point x="875" y="-13"/>
      <point x="748" y="-23" type="curve" smooth="no"/>
      <point x="748" y="-293" type="line" smooth="no"/>
      <point x="599" y="-293" type="line" smooth="no"/>
      <point x="599" y="-19" type="line" smooth="no"/>
      <point x="334" y="13"/>
      <point x="112" y="179"/>
      <point x="112" y="518" type="curve" smooth="yes"/>
      <point x="112" y="878"/>
      <point x="351" y="1028"/>
      <point x="599" y="1056" type="curve" smooth="no"/>
      <point x="599" y="1316" type="line" smooth="no"/>
      <point x="748" y="1316" type="line" smooth="no"/>
    </contour>
    <contour>
      <point x="599" y="734" type="line" smooth="no"/>
      <point x="549" y="693"/>
      <point x="515" y="623"/>
      <point x="515" y="517" type="curve" smooth="yes"/>
      <point x="515" y="412"/>
      <point x="551" y="347"/>
      <point x="599" y="308" type="curve" smooth="no"/>
    </contour>
  </outline>
</glyph>
<glyph name="sterling" format="1">
  <advance width="1259"/>
  <unicode hex="00A3"/>
  <outline>
    <contour>
      <point x="875" y="9" type="curve" smooth="yes"/>
      <point x="980" y="9"/>
      <point x="1095" y="2"/>
      <point x="1201" y="33" type="curve"/>
      <point x="1153" y="350" type="line"/>
      <point x="1059" y="332"/>
      <point x="985" y="334"/>
      <point x="893" y="334" type="curve" smooth="yes"/>
      <point x="803" y="334"/>
      <point x="706" y="335"/>
      <point x="619" y="337" type="curve"/>
      <point x="649" y="412"/>
      <point x="689" y="476"/>
      <point x="689" y="575" type="curve" smooth="yes"/>
      <point x="689" y="585"/>
      <point x="690" y="579"/>
      <point x="689" y="590" type="curve"/>
      <point x="1010" y="590" type="line"/>
      <point x="1010" y="809" type="line"/>
      <point x="671" y="809" type="line"/>
      <point x="656" y="873"/>
      <point x="663" y="932"/>
      <point x="663" y="1005" type="curve" smooth="yes"/>
      <point x="663" y="1098"/>
      <point x="763" y="1149"/>
      <point x="810" y="1149" type="curve" smooth="yes"/>
      <point x="911" y="1149"/>
      <point x="1011" y="1072"/>
      <point x="1062" y="1024" type="curve"/>
      <point x="1131" y="1024" type="line"/>
      <point x="1110" y="1398" type="line"/>
      <point x="1053" y="1454"/>
      <point x="901" y="1503"/>
      <point x="752" y="1503" type="curve" smooth="yes"/>
      <point x="394" y="1503"/>
      <point x="255" y="1289"/>
      <point x="255" y="970" type="curve" smooth="yes"/>
      <point x="255" y="918"/>
      <point x="247" y="863"/>
      <point x="259" y="809" type="curve"/>
      <point x="135" y="809" type="line"/>
      <point x="135" y="590" type="line"/>
      <point x="268" y="590" type="line"/>
      <point x="276" y="520"/>
      <point x="279" y="482"/>
      <point x="279" y="425" type="curve" smooth="yes"/>
      <point x="279" y="394"/>
      <point x="290" y="377"/>
      <point x="271" y="331" type="curve"/>
      <point x="232" y="326"/>
      <point x="188" y="317"/>
      <point x="124" y="313" type="curve"/>
      <point x="124" y="2" type="line"/>
      <point x="197" y="13"/>
      <point x="270" y="10"/>
      <point x="338" y="10" type="curve" smooth="yes"/>
      <point x="502" y="10"/>
      <point x="719" y="9"/>
    </contour>
  </outline>
</glyph>
<glyph name="yen" format="1">
  <advance width="1116"/>
  <unicode hex="00A5"/>
  <outline>
    <contour>
      <point x="412" y="0" type="line"/>
      <point x="867" y="0" type="line"/>
      <point x="867" y="409" type="line"/>
      <point x="1228" y="409" type="line"/>
      <point x="1228" y="648" type="line"/>
      <point x="867" y="648" type="line"/>
      <point x="972" y="763" type="line"/>
      <point x="1228" y="763" type="line"/>
      <point x="1228" y="1009" type="line"/>
      <point x="1112" y="1009" type="line"/>
      <point x="1332" y="1481" type="line"/>
      <point x="830" y="1481" type="line"/>
      <point x="696" y="1205"/>
      <point x="783" y="1269"/>
      <point x="647" y="992" type="curve"/>
      <point x="502" y="1264"/>
      <point x="591" y="1205"/>
      <point x="451" y="1481" type="curve"/>
      <point x="-69" y="1481" type="line"/>
      <point x="161" y="1009" type="line"/>
      <point x="71" y="1009" type="line"/>
      <point x="71" y="763" type="line"/>
      <point x="298" y="763" type="line"/>
      <point x="409" y="648" type="line"/>
      <point x="71" y="648" type="line"/>
      <point x="71" y="409" type="line"/>
      <point x="412" y="409" type="line"/>
    </contour>
  </outline>
</glyph>
<glyph name="brokenbar" format="1">
  <advance width="477"/>
  <unicode hex="00A6"/>
  <outline>
    <contour>
      <point x="108" y="-339" type="line"/>
      <point x="370" y="-339" type="line"/>
      <point x="370" y="339" type="line"/>
      <point x="108" y="339" type="line"/>
    </contour>
    <contour>
      <point x="108" y="630" type="line"/>
      <point x="370" y="630" type="line"/>
      <point x="370" y="1308" type="line"/>
      <point x="108" y="1308" type="line"/>
    </contour>
  </outline>
</glyph>
<glyph name="section" format="1">
  <advance width="1381"/>
  <unicode hex="00a7"/>
  <outline>
    <contour>
      <point x="805" y="590" type="curve" smooth="no"/>
      <point x="805" y="591" type="line" smooth="no"/>
      <point x="806" y="591"/>
      <point x="834" y="603"/>
      <point x="831" y="666" type="curve" smooth="yes"/>
      <point x="827" y="731"/>
      <point x="527" y="731"/>
      <point x="507" y="733" type="curve" smooth="no"/>
      <point x="504" y="735"/>
      <point x="501" y="734"/>
      <point x="498" y="735" type="curve" smooth="no"/>
      <point x="514" y="730"/>
      <point x="462" y="679"/>
      <point x="492" y="646" type="curve" smooth="no"/>
      <point x="522" y="633"/>
      <point x="610" y="612"/>
      <point x="784" y="593" type="curve" smooth="yes"/>
      <point x="794" y="591"/>
      <point x="794" y="591"/>
    </contour>
    <contour>
      <point x="599" y="-99" type="curve" smooth="yes"/>
      <point x="442" y="-99"/>
      <point x="297" y="-60"/>
      <point x="195" y="-5" type="curve" smooth="no"/>
      <point x="244" y="307" type="line" smooth="no"/>
      <point x="282" y="265"/>
      <point x="401" y="155"/>
      <point x="610" y="155" type="curve" smooth="yes"/>
      <point x="656" y="155"/>
      <point x="735" y="163"/>
      <point x="735" y="210" type="curve" smooth="yes"/>
      <point x="735" y="294"/>
      <point x="527" y="287"/>
      <point x="507" y="289" type="curve" smooth="no"/>
      <point x="294" y="330"/>
      <point x="194" y="439"/>
      <point x="194" y="630" type="curve" smooth="yes"/>
      <point x="194" y="703"/>
      <point x="219" y="773"/>
      <point x="270" y="836" type="curve" smooth="no"/>
      <point x="214" y="893"/>
      <point x="194" y="972"/>
      <point x="194" y="1071" type="curve" smooth="yes"/>
      <point x="194" y="1271"/>
      <point x="411" y="1429"/>
      <point x="724" y="1429" type="curve" smooth="yes"/>
      <point x="878" y="1429"/>
      <point x="1008" y="1395"/>
      <point x="1097" y="1351" type="curve" smooth="no"/>
      <point x="1047" y="1045" type="line" smooth="no"/>
      <point x="965" y="1104"/>
      <point x="890" y="1173"/>
      <point x="749" y="1173" type="curve" smooth="yes"/>
      <point x="655" y="1173"/>
      <point x="601" y="1137"/>
      <point x="601" y="1103" type="curve" smooth="yes"/>
      <point x="601" y="1070"/>
      <point x="610" y="1057"/>
      <point x="784" y="1037" type="curve" smooth="no"/>
      <point x="1024" y="1002"/>
      <point x="1155" y="906"/>
      <point x="1155" y="708" type="curve" smooth="yes"/>
      <point x="1155" y="625"/>
      <point x="1122" y="552"/>
      <point x="1061" y="491" type="curve" smooth="no"/>
      <point x="1122" y="438"/>
      <point x="1155" y="362"/>
      <point x="1155" y="265" type="curve" smooth="yes"/>
      <point x="1155" y="55"/>
      <point x="936" y="-99"/>
    </contour>
  </outline>
</glyph>
<glyph name="dieresis" format="1">
  <advance width="903"/>
  <unicode hex="00A8"/>
  <outline>
    <contour>
      <point x="125" y="1160" type="line"/>
      <point x="393" y="1160" type="line"/>
      <point x="393" y="1448" type="line"/>
      <point x="125" y="1448" type="line"/>
    </contour>
    <contour>
      <point x="497" y="1160" type="line"/>
      <point x="763" y="1160" type="line"/>
      <point x="763" y="1448" type="line"/>
      <point x="497" y="1448" type="line"/>
    </contour>
  </outline>
</glyph>
<glyph name="guillemotleft" format="1">
  <advance width="1102"/>
  <unicode hex="00ab"/>
  <outline>
    <contour>
      <point x="970" y="136" type="line" smooth="no"/>
      <point x="589" y="516" type="line" smooth="no"/>
      <point x="589" y="684" type="line" smooth="no"/>
      <point x="970" y="1057" type="line" smooth="no"/>
      <point x="970" y="777" type="line" smooth="no"/>
      <point x="787" y="599" type="line" smooth="no"/>
      <point x="787" y="599"/>
      <point x="1010" y="390"/>
      <point x="970" y="423" type="curve" smooth="no"/>
    </contour>
    <contour>
      <point x="590" y="136" type="line" smooth="no"/>
      <point x="211" y="516" type="line" smooth="no"/>
      <point x="211" y="684" type="line" smooth="no"/>
      <point x="590" y="1057" type="line" smooth="no"/>
      <point x="590" y="777" type="line" smooth="no"/>
      <point x="407" y="599" type="line" smooth="no"/>
      <point x="407" y="599"/>
      <point x="630" y="390"/>
      <point x="590" y="423" type="curve" smooth="no"/>
    </contour>
  </outline>
</glyph>
<glyph name="logicalnot" format="1">
  <advance width="1569"/>
  <unicode hex="00ac"/>
  <outline>
    <contour>
      <point x="1119" y="99" type="line" smooth="no"/>
      <point x="1119" y="547" type="line" smooth="no"/>
      <point x="187" y="547" type="line" smooth="no"/>
      <point x="187" y="782" type="line" smooth="no"/>
      <point x="1380" y="782" type="line" smooth="no"/>
      <point x="1380" y="99" type="line" smooth="no"/>
    </contour>
  </outline>
</glyph>
<glyph name="plusminus" format="1">
  <advance width="1679"/>
  <unicode hex="00b1"/>
  <outline>
    <contour>
      <point x="238" y="0" type="line" smooth="no"/>
      <point x="238" y="178" type="line" smooth="no"/>
      <point x="1217" y="178" type="line" smooth="no"/>
      <point x="1217" y="0" type="line" smooth="no"/>
    </contour>
    <contour>
      <point x="636" y="280" type="line" smooth="no"/>
      <point x="636" y="619" type="line" smooth="no"/>
      <point x="240" y="619" type="line" smooth="no"/>
      <point x="240" y="793" type="line" smooth="no"/>
      <point x="636" y="793" type="line" smooth="no"/>
      <point x="636" y="1133" type="line" smooth="no"/>
      <point x="819" y="1133" type="line" smooth="no"/>
      <point x="819" y="793" type="line" smooth="no"/>
      <point x="1220" y="793" type="line" smooth="no"/>
      <point x="1220" y="619" type="line" smooth="no"/>
      <point x="819" y="619" type="line" smooth="no"/>
      <point x="819" y="280" type="line" smooth="no"/>
    </contour>
  </outline>
</glyph>
<glyph name="acute" format="1">
  <advance width="1021"/>
  <unicode hex="00b4"/>
  <outline>
    <contour>
      <point x="291" y="1186" type="line" smooth="no"/>
      <point x="504" y="1534" type="line" smooth="no"/>
      <point x="869" y="1534" type="line" smooth="no"/>
      <point x="568" y="1186" type="line" smooth="no"/>
    </contour>
  </outline>
</glyph>
<glyph name="paragraph" format="1">
  <advance width="1319"/>
  <unicode hex="00b6"/>
  <outline>
    <contour>
      <point x="589" y="-278" type="line" smooth="no"/>
      <point x="589" y="626" type="line" smooth="no"/>
      <point x="213" y="635"/>
      <point x="49" y="809"/>
      <point x="49" y="1055" type="curve" smooth="yes"/>
      <point x="49" y="1295"/>
      <point x="231" y="1481"/>
      <point x="603" y="1481" type="curve" smooth="yes"/>
      <point x="1141" y="1481" type="line" smooth="no"/>
      <point x="1141" y="-278" type="line" smooth="no"/>
      <point x="928" y="-278" type="line" smooth="no"/>
      <point x="928" y="1291" type="line" smooth="no"/>
      <point x="815" y="1291" type="line" smooth="no"/>
      <point x="815" y="-278" type="line" smooth="no"/>
    </contour>
  </outline>
</glyph>
<glyph name="guillemotright" format="1">
  <advance width="1102"/>
  <unicode hex="00bb"/>
  <outline>
    <contour>
      <point x="586" y="136" type="line" smooth="no"/>
      <point x="586" y="415" type="line" smooth="no"/>
      <point x="771" y="594" type="line" smooth="no"/>
      <point x="771" y="594"/>
      <point x="546" y="800"/>
      <point x="586" y="767" type="curve" smooth="no"/>
      <point x="586" y="1057" type="line" smooth="no"/>
      <point x="967" y="674" type="line" smooth="no"/>
      <point x="967" y="509" type="line" smooth="no"/>
    </contour>
    <contour>
      <point x="207" y="136" type="line" smooth="no"/>
      <point x="207" y="415" type="line" smooth="no"/>
      <point x="392" y="594" type="line" smooth="no"/>
      <point x="392" y="594"/>
      <point x="167" y="800"/>
      <point x="207" y="767" type="curve" smooth="no"/>
      <point x="207" y="1057" type="line" smooth="no"/>
      <point x="587" y="674" type="line" smooth="no"/>
      <point x="587" y="509" type="line" smooth="no"/>
    </contour>
  </outline>
</glyph>
<glyph name="onequarter" format="1">
  <advance width="1620"/>
  <unicode hex="00BC"/>
  <outline>
    <contour>
      <point x="1178" y="0" type="line"/>
      <point x="1436" y="0" type="line"/>
      <point x="1436" y="122" type="line"/>
      <point x="1512" y="122" type="line"/>
      <point x="1512" y="263" type="line"/>
      <point x="1436" y="263" type="line"/>
      <point x="1436" y="819" type="line"/>
      <point x="1107" y="819" type="line"/>
      <point x="862" y="263" type="line"/>
      <point x="862" y="122" type="line"/>
      <point x="1178" y="122" type="line"/>
    </contour>
    <contour>
      <point x="370" y="0" type="line"/>
      <point x="497" y="0" type="line"/>
      <point x="1291" y="1430" type="line"/>
      <point x="1163" y="1430" type="line"/>
    </contour>
    <contour>
      <point x="1049" y="263" type="line"/>
      <point x="1178" y="602" type="line"/>
      <point x="1178" y="263" type="line"/>
    </contour>
    <component base="one.superior" xOffset="47"/>
  </outline>
</glyph>
<glyph name="onehalf" format="1">
  <advance width="1677"/>
  <unicode hex="00BD"/>
  <outline>
    <contour>
      <point x="381" y="0" type="line"/>
      <point x="508" y="0" type="line"/>
      <point x="1302" y="1430" type="line"/>
      <point x="1174" y="1430" type="line"/>
    </contour>
    <component base="two.superior" xOffset="937" yOffset="-556"/>
    <component base="one.superior" xOffset="42"/>
  </outline>
</glyph>
<glyph name="threequarters" format="1">
  <advance width="1593"/>
  <unicode hex="00BE"/>
  <outline>
    <contour>
      <point x="1151" y="0" type="line"/>
      <point x="1409" y="0" type="line"/>
      <point x="1409" y="122" type="line"/>
      <point x="1484" y="122" type="line"/>
      <point x="1484" y="263" type="line"/>
      <point x="1409" y="263" type="line"/>
      <point x="1409" y="819" type="line"/>
      <point x="1080" y="819" type="line"/>
      <point x="835" y="263" type="line"/>
      <point x="835" y="122" type="line"/>
      <point x="1151" y="122" type="line"/>
    </contour>
    <contour>
      <point x="342" y="0" type="line"/>
      <point x="469" y="0" type="line"/>
      <point x="1263" y="1430" type="line"/>
      <point x="1135" y="1430" type="line"/>
    </contour>
    <contour>
      <point x="1021" y="263" type="line"/>
      <point x="1151" y="602" type="line"/>
      <point x="1151" y="263" type="line"/>
    </contour>
    <component base="three.superior" xOffset="4"/>
  </outline>
</glyph>
<glyph name="Eth" format="1">
  <advance width="1220"/>
  <unicode hex="00D0"/>
  <outline>
    <contour>
      <point x="43" y="653" type="line"/>
      <point x="708" y="653" type="line"/>
      <point x="708" y="855" type="line"/>
      <point x="43" y="855" type="line"/>
    </contour>
    <component base="D"/>
  </outline>
</glyph>
<glyph name="Thorn" format="1">
  <advance width="1427"/>
  <unicode hex="00DE"/>
  <outline>
    <contour>
      <point x="124" y="0" type="line"/>
      <point x="584" y="0" type="line"/>
      <point x="584" y="342" type="line"/>
      <point x="837" y="342" type="line" smooth="yes"/>
      <point x="1212" y="342"/>
      <point x="1429" y="600"/>
      <point x="1429" y="896" type="curve" smooth="yes"/>
      <point x="1429" y="1237"/>
      <point x="1140" y="1368"/>
      <point x="863" y="1368" type="curve" smooth="yes"/>
      <point x="584" y="1368" type="line"/>
      <point x="584" y="1481" type="line"/>
      <point x="124" y="1481" type="line"/>
    </contour>
    <contour>
      <point x="584" y="676" type="line"/>
      <point x="584" y="1032" type="line"/>
      <point x="647" y="1032" type="line" smooth="yes"/>
      <point x="714" y="1032"/>
      <point x="958" y="1075"/>
      <point x="958" y="889" type="curve" smooth="yes"/>
      <point x="958" y="674"/>
      <point x="742" y="676"/>
      <point x="540" y="676" type="curve" smooth="yes"/>
    </contour>
  </outline>
</glyph>
<glyph name="Thorn" format="1">
  <advance width="1427"/>
  <unicode hex="00de"/>
  <outline>
    <contour>
      <point x="584" y="676" type="line" smooth="no"/>
      <point x="772" y="677"/>
      <point x="958" y="690"/>
      <point x="958" y="889" type="curve" smooth="yes"/>
      <point x="958" y="1075"/>
      <point x="714" y="1032"/>
      <point x="647" y="1032" type="curve" smooth="yes"/>
      <point x="584" y="1032" type="line" smooth="no"/>
    </contour>
    <contour>
      <point x="124" y="0" type="line" smooth="no"/>
      <point x="124" y="1481" type="line" smooth="no"/>
      <point x="584" y="1481" type="line" smooth="no"/>
      <point x="584" y="1368" type="line" smooth="no"/>
      <point x="863" y="1368" type="line" smooth="yes"/>
      <point x="1140" y="1368"/>
      <point x="1429" y="1237"/>
      <point x="1429" y="896" type="curve" smooth="yes"/>
      <point x="1429" y="600"/>
      <point x="1212" y="342"/>
      <point x="837" y="342" type="curve" smooth="yes"/>
      <point x="584" y="342" type="line" smooth="no"/>
      <point x="584" y="0" type="line" smooth="no"/>
    </contour>
  </outline>
</glyph>
<glyph name="germandbls" format="1">
  <advance width="1238"/>
  <unicode hex="00df"/>
  <outline>
    <contour>
      <point x="118" y="0" type="line" smooth="no"/>
      <point x="118" y="1029" type="line" smooth="yes"/>
      <point x="118" y="1334"/>
      <point x="289" y="1505"/>
      <point x="627" y="1505" type="curve" smooth="yes"/>
      <point x="937" y="1505"/>
      <point x="1134" y="1363"/>
      <point x="1134" y="1163" type="curve" smooth="yes"/>
      <point x="1134" y="1007"/>
      <point x="1007" y="897"/>
      <point x="871" y="875" type="curve" smooth="no"/>
      <point x="871" y="857" type="line" smooth="no"/>
      <point x="1098" y="823"/>
      <point x="1263" y="631"/>
      <point x="1263" y="467" type="curve" smooth="yes"/>
      <point x="1263" y="152"/>
      <point x="1054" y="-5"/>
      <point x="703" y="-5" type="curve" smooth="yes"/>
      <point x="686" y="-5"/>
      <point x="649" y="-1"/>
      <point x="606" y="0" type="curve" smooth="no"/>
      <point x="606" y="294" type="line" smooth="no"/>
      <point x="612" y="293"/>
      <point x="622" y="295"/>
      <point x="630" y="295" type="curve" smooth="yes"/>
      <point x="779" y="295"/>
      <point x="870" y="342"/>
      <point x="870" y="488" type="curve" smooth="yes"/>
      <point x="870" y="618"/>
      <point x="762" y="675"/>
      <point x="603" y="675" type="curve" smooth="no"/>
      <point x="603" y="990" type="line" smooth="no"/>
      <point x="675" y="990"/>
      <point x="763" y="983"/>
      <point x="763" y="1117" type="curve" smooth="yes"/>
      <point x="763" y="1208"/>
      <point x="737" y="1236"/>
      <point x="660" y="1236" type="curve" smooth="yes"/>
      <point x="502" y="1236"/>
      <point x="507" y="1126"/>
      <point x="507" y="1055" type="curve" smooth="yes"/>
      <point x="507" y="0" type="line" smooth="no"/>
    </contour>
  </outline>
</glyph>
<glyph name="eth" format="1">
  <advance width="967"/>
  <unicode hex="00F0"/>
  <outline>
    <contour>
      <point x="654" y="-25" type="curve" smooth="yes"/>
      <point x="999" y="-25"/>
      <point x="1221" y="192"/>
      <point x="1221" y="574" type="curve" smooth="yes"/>
      <point x="1221" y="1025"/>
      <point x="1054" y="1286"/>
      <point x="732" y="1406" type="curve"/>
      <point x="767" y="1501" type="line"/>
      <point x="645" y="1552" type="line"/>
      <point x="600" y="1444" type="line"/>
      <point x="502" y="1459"/>
      <point x="392" y="1469"/>
      <point x="272" y="1479" type="curve" smooth="yes"/>
      <point x="202" y="1171" type="line"/>
      <point x="288" y="1161"/>
      <point x="364" y="1159"/>
      <point x="434" y="1145" type="curve"/>
      <point x="415" y="1076" type="line"/>
      <point x="540" y="1019" type="line"/>
      <point x="561" y="1098" type="line"/>
      <point x="622" y="1073"/>
      <point x="668" y="1028"/>
      <point x="697" y="947" type="curve"/>
      <point x="630" y="959"/>
      <point x="579" y="985"/>
      <point x="481" y="985" type="curve" smooth="yes"/>
      <point x="221" y="985"/>
      <point x="91" y="828"/>
      <point x="91" y="512" type="curve" smooth="yes"/>
      <point x="91" y="180"/>
      <point x="313" y="-25"/>
    </contour>
    <contour>
      <point x="664" y="272" type="curve" smooth="yes"/>
      <point x="533" y="272"/>
      <point x="535" y="349"/>
      <point x="535" y="493" type="curve" smooth="yes"/>
      <point x="535" y="661"/>
      <point x="590" y="681"/>
      <point x="664" y="681" type="curve" smooth="yes"/>
      <point x="825" y="682"/>
      <point x="798" y="632"/>
      <point x="798" y="501" type="curve" smooth="yes"/>
      <point x="798" y="370"/>
      <point x="766" y="272"/>
    </contour>
  </outline>
</glyph>
<glyph name="oslash" format="1">
  <advance width="1165"/>
  <unicode hex="00F8"/>
  <outline>
    <contour>
      <point x="584" y="-28" type="curve" smooth="yes"/>
      <point x="970" y="-28"/>
      <point x="1131" y="181"/>
      <point x="1131" y="516" type="curve" smooth="yes"/>
      <point x="1131" y="728"/>
      <point x="1069" y="887"/>
      <point x="935" y="979" type="curve"/>
      <point x="1070" y="1202" type="line"/>
      <point x="895" y="1202" type="line"/>
      <point x="798" y="1041" type="line"/>
      <point x="737" y="1052"/>
      <point x="667" y="1059"/>
      <point x="584" y="1059" type="curve" smooth="yes"/>
      <point x="191" y="1059"/>
      <point x="36" y="855"/>
      <point x="36" y="517" type="curve" smooth="yes"/>
      <point x="36" y="309"/>
      <point x="98" y="155"/>
      <point x="227" y="62" type="curve"/>
      <point x="75" y="-192" type="line"/>
      <point x="243" y="-192" type="line"/>
      <point x="361" y="-3" type="line"/>
      <point x="425" y="-18"/>
      <point x="495" y="-28"/>
    </contour>
    <contour>
      <point x="436" y="404" type="line"/>
      <point x="436" y="434"/>
      <point x="438" y="470"/>
      <point x="438" y="515" type="curve" smooth="yes"/>
      <point x="438" y="771"/>
      <point x="510" y="787"/>
      <point x="584" y="787" type="curve" smooth="yes"/>
      <point x="599" y="787"/>
      <point x="619" y="787"/>
      <point x="641" y="781" type="curve"/>
    </contour>
    <contour>
      <point x="587" y="249" type="curve" smooth="yes"/>
      <point x="563" y="249"/>
      <point x="540" y="250"/>
      <point x="519" y="257" type="curve"/>
      <point x="723" y="632" type="line"/>
      <point x="728" y="600"/>
      <point x="726" y="563"/>
      <point x="726" y="516" type="curve" smooth="yes"/>
      <point x="726" y="303"/>
      <point x="675" y="249"/>
    </contour>
  </outline>
</glyph>
<glyph name="dcroat" format="1">
  <advance width="1303"/>
  <unicode hex="0111"/>
  <outline>
    <contour>
      <point x="517" y="-18" type="curve"/>
      <point x="638" y="-18"/>
      <point x="696" y="-2"/>
      <point x="794" y="62" type="curve"/>
      <point x="794" y="0" type="line"/>
      <point x="1186" y="0" type="line"/>
      <point x="1186" y="1441" type="line"/>
      <point x="794" y="1441" type="line"/>
      <point x="794" y="961" type="line"/>
      <point x="692" y="1024"/>
      <point x="621" y="1059"/>
      <point x="511" y="1059" type="curve" smooth="yes"/>
      <point x="193" y="1059"/>
      <point x="82" y="847"/>
      <point x="82" y="536" type="curve" smooth="yes"/>
      <point x="82" y="218"/>
      <point x="240" y="-18"/>
    </contour>
    <contour>
      <point x="693" y="258" type="curve" smooth="yes"/>
      <point x="548" y="258"/>
      <point x="481" y="364"/>
      <point x="481" y="506" type="curve" smooth="yes"/>
      <point x="481" y="682"/>
      <point x="522" y="778"/>
      <point x="620" y="778" type="curve" smooth="yes"/>
      <point x="661" y="778"/>
      <point x="723" y="758"/>
      <point x="794" y="729" type="curve"/>
      <point x="794" y="259" type="line"/>
      <point x="753" y="261"/>
      <point x="725" y="258"/>
    </contour>
  </outline>
</glyph>
<glyph name="dotlessi" format="1">
  <advance width="621"/>
  <unicode hex="0131"/>
  <outline>
    <contour>
      <point x="123" y="0" type="line"/>
      <point x="510" y="0" type="line"/>
      <point x="510" y="1038" type="line"/>
      <point x="123" y="1038" type="line"/>
    </contour>
  </outline>
</glyph>
<glyph name="Lslash" format="1">
  <advance width="1257"/>
  <unicode hex="0141"/>
  <outline>
    <contour>
      <point x="119" y="0" type="line" smooth="no"/>
      <point x="119" y="470" type="line" smooth="no"/>
      <point x="-14" y="381" type="line" smooth="no"/>
      <point x="-14" y="624" type="line" smooth="no"/>
      <point x="119" y="716" type="line" smooth="no"/>
      <point x="119" y="1481" type="line" smooth="no"/>
      <point x="579" y="1481" type="line" smooth="no"/>
      <point x="579" y="1035" type="line" smooth="no"/>
      <point x="811" y="1197" type="line" smooth="no"/>
      <point x="811" y="951" type="line" smooth="no"/>
      <point x="579" y="790" type="line" smooth="no"/>
      <point x="579" y="341" type="line" smooth="no"/>
      <point x="1216" y="341" type="line" smooth="no"/>
      <point x="1216" y="0" type="line" smooth="no"/>
    </contour>
  </outline>
</glyph>
<glyph name="florin" format="1">
  <advance width="1178"/>
  <unicode hex="0192"/>
  <outline>
    <contour>
      <point x="206" y="-200" type="curve" smooth="yes"/>
      <point x="439" y="-200"/>
      <point x="665" y="-100"/>
      <point x="707" y="167" type="curve"/>
      <point x="691" y="68"/>
      <point x="788" y="691"/>
      <point x="775" y="605" type="curve"/>
      <point x="1012" y="605" type="line"/>
      <point x="1011" y="841" type="line"/>
      <point x="815" y="841" type="line"/>
      <point x="810" y="817"/>
      <point x="833" y="1008"/>
      <point x="828" y="982" type="curve" smooth="yes"/>
      <point x="830" y="1004"/>
      <point x="843" y="1095"/>
      <point x="981" y="1095" type="curve" smooth="yes"/>
      <point x="1048" y="1095"/>
      <point x="1128" y="1078"/>
      <point x="1143" y="1083" type="curve"/>
      <point x="1138" y="1377" type="line"/>
      <point x="1071" y="1386"/>
      <point x="1004" y="1387"/>
      <point x="961" y="1387" type="curve" smooth="yes"/>
      <point x="746" y="1387"/>
      <point x="507" y="1370"/>
      <point x="447" y="992" type="curve" smooth="yes"/>
      <point x="454" y="1037"/>
      <point x="419" y="800"/>
      <point x="425" y="841" type="curve"/>
      <point x="277" y="841" type="line"/>
      <point x="277" y="605" type="line"/>
      <point x="392" y="605" type="line"/>
      <point x="408" y="703"/>
      <point x="349" y="317"/>
      <point x="367" y="435" type="curve" smooth="yes"/>
      <point x="365" y="333"/>
      <point x="330" y="86"/>
      <point x="183" y="86" type="curve" smooth="yes"/>
      <point x="102" y="86"/>
      <point x="40" y="111"/>
      <point x="10" y="103" type="curve"/>
      <point x="14" y="-189" type="line"/>
      <point x="59" y="-196"/>
      <point x="163" y="-200"/>
    </contour>
  </outline>
</glyph>
<glyph name="uni0237" format="1">
  <advance width="601"/>
  <unicode hex="0237"/>
  <outline>
    <contour>
      <point x="106" y="-388" type="curve" smooth="yes"/>
      <point x="336" y="-388"/>
      <point x="502" y="-260"/>
      <point x="502" y="-37" type="curve" smooth="yes"/>
      <point x="502" y="1045" type="line"/>
      <point x="166" y="1045" type="line"/>
      <point x="166" y="62" type="line" smooth="yes"/>
      <point x="166" y="-141"/>
      <point x="102" y="-166"/>
      <point x="0" y="-166" type="curve" smooth="yes"/>
      <point x="-31" y="-166"/>
      <point x="-61" y="-163"/>
      <point x="-97" y="-160" type="curve"/>
      <point x="-97" y="-379" type="line"/>
      <point x="-63" y="-382"/>
      <point x="0" y="-388"/>
    </contour>
  </outline>
</glyph>
<glyph name="circumflex" format="1">
  <advance width="824"/>
  <unicode hex="02c6"/>
  <outline>
    <contour>
      <point x="-13" y="1175" type="line" smooth="no"/>
      <point x="277" y="1520" type="line" smooth="no"/>
      <point x="553" y="1520" type="line" smooth="no"/>
      <point x="844" y="1175" type="line" smooth="no"/>
      <point x="546" y="1175" type="line" smooth="no"/>
      <point x="415" y="1339" type="line" smooth="no"/>
      <point x="275" y="1175" type="line" smooth="no"/>
    </contour>
  </outline>
</glyph>
<glyph name="dotaccent" format="1">
  <advance width="152"/>
  <unicode hex="02d9"/>
  <outline>
    <contour>
      <point x="-75" y="141" type="curve" smooth="yes"/>
      <point x="-197" y="141"/>
      <point x="-301" y="246"/>
      <point x="-301" y="368" type="curve" smooth="yes"/>
      <point x="-301" y="491"/>
      <point x="-197" y="594"/>
      <point x="-75" y="594" type="curve" smooth="yes"/>
      <point x="50" y="594"/>
      <point x="153" y="491"/>
      <point x="153" y="368" type="curve" smooth="yes"/>
      <point x="153" y="246"/>
      <point x="50" y="141"/>
    </contour>
  </outline>
</glyph>
<glyph name="tilde" format="1">
  <advance width="1304"/>
  <unicode hex="02DC"/>
  <outline>
    <contour>
      <point x="906" y="186" type="curve" smooth="yes"/>
      <point x="1079" y="186"/>
      <point x="1124" y="269"/>
      <point x="1129" y="555" type="curve"/>
      <point x="908" y="555" type="line"/>
      <point x="908" y="471"/>
      <point x="904" y="446"/>
      <point x="860" y="446" type="curve" smooth="yes"/>
      <point x="806" y="446"/>
      <point x="520" y="555"/>
      <point x="407" y="555" type="curve" smooth="yes"/>
      <point x="260" y="555"/>
      <point x="177" y="436"/>
      <point x="177" y="186" type="curve"/>
      <point x="177" y="182"/>
      <point x="393" y="186"/>
      <point x="393" y="186" type="curve"/>
      <point x="393" y="281"/>
      <point x="425" y="283"/>
      <point x="465" y="283" type="curve" smooth="yes"/>
      <point x="536" y="283"/>
      <point x="795" y="186"/>
    </contour>
  </outline>
</glyph>
<glyph name="hungarumlaut" format="1">
  <advance width="900"/>
  <unicode hex="02dd"/>
  <outline>
    <contour>
      <point x="617" y="1186" type="line" smooth="no"/>
      <point x="818" y="1534" type="line" smooth="no"/>
      <point x="1197" y="1534" type="line" smooth="no"/>
      <point x="893" y="1186" type="line" smooth="no"/>
    </contour>
    <contour>
      <point x="101" y="1186" type="line" smooth="no"/>
      <point x="310" y="1534" type="line" smooth="no"/>
      <point x="696" y="1534" type="line" smooth="no"/>
      <point x="379" y="1186" type="line" smooth="no"/>
    </contour>
  </outline>
</glyph>
<glyph name="uni0307" format="1">
  <advance width="548"/>
  <unicode hex="0307"/>
  <outline>
    <contour>
      <point x="290" y="120" type="curve" smooth="yes"/>
      <point x="168" y="120"/>
      <point x="64" y="225"/>
      <point x="64" y="347" type="curve" smooth="yes"/>
      <point x="64" y="470"/>
      <point x="168" y="573"/>
      <point x="290" y="573" type="curve" smooth="yes"/>
      <point x="415" y="573"/>
      <point x="519" y="470"/>
      <point x="519" y="347" type="curve" smooth="yes"/>
      <point x="519" y="225"/>
      <point x="415" y="120"/>
    </contour>
  </outline>
</glyph>
<glyph name="Delta" format="1">
  <advance width="1071"/>
  <unicode hex="0394"/>
  <outline>
    <contour>
      <point x="-11" y="0" type="line"/>
      <point x="1081" y="0" type="line"/>
      <point x="1081" y="185" type="line"/>
      <point x="696" y="1381" type="line"/>
      <point x="387" y="1381" type="line"/>
      <point x="-11" y="182" type="line"/>
    </contour>
    <contour>
      <point x="272" y="201" type="line"/>
      <point x="272" y="201"/>
      <point x="518" y="1061"/>
      <point x="534" y="1138" type="curve"/>
      <point x="539" y="1138" type="line"/>
      <point x="555" y="1049"/>
      <point x="780" y="201"/>
      <point x="780" y="201" type="curve"/>
    </contour>
  </outline>
</glyph>
<glyph name="Delta" format="1">
  <advance width="1071"/>
  <unicode hex="0394"/>
  <outline>
    <contour>
      <point x="272" y="201" type="curve" smooth="no"/>
      <point x="780" y="201" type="line" smooth="no"/>
      <point x="780" y="201"/>
      <point x="555" y="1049"/>
      <point x="539" y="1138" type="curve" smooth="no"/>
      <point x="534" y="1138" type="line" smooth="no"/>
      <point x="518" y="1061"/>
      <point x="272" y="201"/>
    </contour>
    <contour>
      <point x="-11" y="0" type="line" smooth="no"/>
      <point x="-11" y="182" type="line" smooth="no"/>
      <point x="387" y="1381" type="line" smooth="no"/>
      <point x="696" y="1381" type="line" smooth="no"/>
      <point x="1081" y="185" type="line" smooth="no"/>
      <point x="1081" y="0" type="line" smooth="no"/>
    </contour>
  </outline>
</glyph>
<glyph name="Omega" format="1">
  <advance width="1430"/>
  <unicode hex="03A9"/>
  <outline>
    <contour>
      <point x="77" y="0" type="line"/>
      <point x="617" y="0" type="line"/>
      <point x="617" y="201" type="line"/>
      <point x="450" y="342"/>
      <point x="375" y="504"/>
      <point x="375" y="722" type="curve" smooth="yes"/>
      <point x="375" y="979"/>
      <point x="519" y="1149"/>
      <point x="722" y="1149" type="curve" smooth="yes"/>
      <point x="925" y="1149"/>
      <point x="1058" y="962"/>
      <point x="1058" y="733" type="curve" smooth="yes"/>
      <point x="1058" y="501"/>
      <point x="966" y="323"/>
      <point x="814" y="201" type="curve"/>
      <point x="814" y="0" type="line"/>
      <point x="1353" y="0" type="line"/>
      <point x="1353" y="218" type="line"/>
      <point x="1118" y="218" type="line"/>
      <point x="1045" y="219" type="line"/>
      <point x="1233" y="339"/>
      <point x="1346" y="532"/>
      <point x="1346" y="779" type="curve" smooth="yes"/>
      <point x="1346" y="1111"/>
      <point x="1104" y="1378"/>
      <point x="718" y="1378" type="curve" smooth="yes"/>
      <point x="350" y="1378"/>
      <point x="87" y="1127"/>
      <point x="87" y="768" type="curve" smooth="yes"/>
      <point x="87" y="522"/>
      <point x="200" y="315"/>
      <point x="379" y="218" type="curve"/>
      <point x="77" y="218" type="line"/>
    </contour>
  </outline>
</glyph>
<glyph name="pi" format="1">
  <advance width="1218"/>
  <unicode hex="03C0"/>
  <outline>
    <contour>
      <point x="158" y="0" type="curve"/>
      <point x="419" y="0" type="line"/>
      <point x="445" y="75"/>
      <point x="461" y="183"/>
      <point x="467" y="320" type="curve" smooth="yes"/>
      <point x="477" y="479"/>
      <point x="482" y="642"/>
      <point x="484" y="783" type="curve"/>
      <point x="727" y="783" type="line"/>
      <point x="727" y="326" type="line" smooth="yes"/>
      <point x="727" y="138"/>
      <point x="788" y="32"/>
      <point x="924" y="11" type="curve"/>
      <point x="964" y="1"/>
      <point x="1001" y="3"/>
      <point x="1037" y="10" type="curve"/>
      <point x="1103" y="156" type="line"/>
      <point x="1079" y="167"/>
      <point x="1055" y="190"/>
      <point x="1037" y="241" type="curve"/>
      <point x="1002" y="251"/>
      <point x="986" y="293"/>
      <point x="986" y="362" type="curve" smooth="yes"/>
      <point x="986" y="783" type="line"/>
      <point x="1164" y="783" type="line"/>
      <point x="1169" y="986" type="line"/>
      <point x="328" y="986" type="line" smooth="yes"/>
      <point x="173" y="986"/>
      <point x="77" y="974"/>
      <point x="12" y="926" type="curve"/>
      <point x="21" y="727" type="line"/>
      <point x="81" y="763"/>
      <point x="146" y="783"/>
      <point x="227" y="783" type="curve"/>
      <point x="227" y="642"/>
      <point x="222" y="488"/>
      <point x="213" y="332" type="curve"/>
      <point x="206" y="196"/>
      <point x="188" y="86"/>
    </contour>
  </outline>
</glyph>
<glyph name="endash" format="1">
  <advance width="1054"/>
  <unicode hex="2013"/>
  <outline>
    <contour>
      <point x="-114" y="472" type="line" smooth="no"/>
      <point x="-114" y="718" type="line" smooth="no"/>
      <point x="1171" y="718" type="line" smooth="no"/>
      <point x="1171" y="472" type="line" smooth="no"/>
    </contour>
  </outline>
</glyph>
<glyph name="emdash" format="1">
  <advance width="1704"/>
  <unicode hex="2014"/>
  <outline>
    <contour>
      <point x="-114" y="472" type="line" smooth="no"/>
      <point x="-114" y="718" type="line" smooth="no"/>
      <point x="1822" y="718" type="line" smooth="no"/>
      <point x="1822" y="472" type="line" smooth="no"/>
    </contour>
  </outline>
</glyph>
<glyph name="quotedblright" format="1">
  <advance width="968"/>
  <unicode hex="201d"/>
  <outline>
    <contour>
      <point x="552" y="990" type="line" smooth="no"/>
      <point x="653" y="1481" type="line" smooth="no"/>
      <point x="1010" y="1481" type="line" smooth="no"/>
      <point x="802" y="990" type="line" smooth="no"/>
    </contour>
    <contour>
      <point x="122" y="990" type="line" smooth="no"/>
      <point x="222" y="1481" type="line" smooth="no"/>
      <point x="580" y="1481" type="line" smooth="no"/>
      <point x="373" y="990" type="line" smooth="no"/>
    </contour>
  </outline>
</glyph>
<glyph name="fraction" format="1">
  <advance width="607"/>
  <unicode hex="2044"/>
  <outline>
    <contour>
      <point x="-236" y="-14" type="line" smooth="no"/>
      <point x="568" y="1412" type="line" smooth="no"/>
      <point x="828" y="1412" type="line" smooth="no"/>
      <point x="27" y="-14" type="line" smooth="no"/>
    </contour>
  </outline>
</glyph>
<glyph name="Euro" format="1">
  <advance width="1180"/>
  <unicode hex="20AC"/>
  <outline>
    <contour>
      <point x="753" y="-25" type="curve" smooth="yes"/>
      <point x="928" y="-8"/>
      <point x="1039" y="17"/>
      <point x="1146" y="41" type="curve"/>
      <point x="1146" y="396" type="line"/>
      <point x="1049" y="396" type="line"/>
      <point x="974" y="339"/>
      <point x="873" y="306"/>
      <point x="818" y="306" type="curve"/>
      <point x="750" y="319"/>
      <point x="664" y="323"/>
      <point x="598" y="437" type="curve"/>
      <point x="907" y="437" type="line"/>
      <point x="953" y="640" type="line"/>
      <point x="530" y="640" type="line"/>
      <point x="529" y="646"/>
      <point x="530" y="653"/>
      <point x="530" y="666" type="curve" smooth="yes"/>
      <point x="530" y="708"/>
      <point x="532" y="722"/>
      <point x="536" y="819" type="curve"/>
      <point x="991" y="819" type="line"/>
      <point x="1031" y="1010" type="line"/>
      <point x="583" y="1010" type="line"/>
      <point x="631" y="1094"/>
      <point x="672" y="1175"/>
      <point x="842" y="1175" type="curve" smooth="yes"/>
      <point x="856" y="1175"/>
      <point x="965" y="1160"/>
      <point x="1013" y="1083" type="curve"/>
      <point x="1146" y="1083" type="line"/>
      <point x="1146" y="1437" type="line"/>
      <point x="1021" y="1465"/>
      <point x="877" y="1505"/>
      <point x="733" y="1505" type="curve" smooth="yes"/>
      <point x="381" y="1505"/>
      <point x="168" y="1300"/>
      <point x="92" y="1010" type="curve"/>
      <point x="10" y="1010" type="line"/>
      <point x="-35" y="819" type="line"/>
      <point x="63" y="819" type="line"/>
      <point x="58" y="722"/>
      <point x="58" y="711"/>
      <point x="58" y="666" type="curve" smooth="yes"/>
      <point x="58" y="653"/>
      <point x="59" y="646"/>
      <point x="59" y="640" type="curve"/>
      <point x="4" y="640" type="line"/>
      <point x="-44" y="437" type="line"/>
      <point x="99" y="437" type="line"/>
      <point x="181" y="120"/>
      <point x="413" y="-25"/>
    </contour>
  </outline>
</glyph>
<glyph name="trademark" format="1">
  <advance width="1829"/>
  <unicode hex="2122"/>
  <outline>
    <contour>
      <point x="805" y="765" type="line"/>
      <point x="1001" y="765" type="line"/>
      <point x="1001" y="1301" type="line"/>
      <point x="1026" y="1301" type="line"/>
      <point x="1208" y="855" type="line"/>
      <point x="1337" y="855" type="line"/>
      <point x="1524" y="1296" type="line"/>
      <point x="1540" y="1296" type="line"/>
      <point x="1540" y="765" type="line"/>
      <point x="1735" y="765" type="line"/>
      <point x="1735" y="1484" type="line"/>
      <point x="1428" y="1484" type="line"/>
      <point x="1275" y="1072" type="line"/>
      <point x="1128" y="1484" type="line"/>
      <point x="805" y="1484" type="line"/>
    </contour>
    <contour>
      <point x="267" y="765" type="line"/>
      <point x="480" y="765" type="line"/>
      <point x="480" y="1307" type="line"/>
      <point x="693" y="1307" type="line"/>
      <point x="693" y="1484" type="line"/>
      <point x="54" y="1484" type="line"/>
      <point x="54" y="1307" type="line"/>
      <point x="267" y="1307" type="line"/>
    </contour>
  </outline>
</glyph>
<glyph name="product" format="1">
  <advance width="1562"/>
  <unicode hex="220f"/>
  <outline>
    <contour>
      <point x="189" y="-265" type="line" smooth="no"/>
      <point x="189" y="1430" type="line" smooth="no"/>
      <point x="1392" y="1430" type="line" smooth="no"/>
      <point x="1392" y="-265" type="line" smooth="no"/>
      <point x="1036" y="-265" type="line" smooth="no"/>
      <point x="1036" y="1160" type="line" smooth="no"/>
      <point x="544" y="1160" type="line" smooth="no"/>
      <point x="544" y="-265" type="line" smooth="no"/>
    </contour>
  </outline>
</glyph>
<glyph name="summation" format="1">
  <advance width="1184"/>
  <unicode hex="2211"/>
  <outline>
    <contour>
      <point x="90" y="0" type="line"/>
      <point x="1107" y="0" type="line"/>
      <point x="1107" y="239" type="line"/>
      <point x="448" y="239" type="line"/>
      <point x="871" y="797" type="line"/>
      <point x="482" y="1238" type="line"/>
      <point x="1077" y="1238" type="line"/>
      <point x="1077" y="1481" type="line"/>
      <point x="111" y="1481" type="line"/>
      <point x="111" y="1316" type="line"/>
      <point x="594" y="774" type="line"/>
      <point x="90" y="136" type="line"/>
    </contour>
  </outline>
</glyph>
<glyph name="uni2215" format="1">
  <advance width="1358"/>
  <unicode hex="2215"/>
  <outline>
    <contour>
      <point x="230" y="0" type="line" smooth="no"/>
      <point x="787" y="1482" type="line" smooth="no"/>
      <point x="1083" y="1482" type="line" smooth="no"/>
      <point x="522" y="0" type="line" smooth="no"/>
    </contour>
  </outline>
</glyph>
<glyph name="radical" format="1">
  <advance width="1359"/>
  <unicode hex="221a"/>
  <outline>
    <contour>
      <point x="618" y="-98" type="line" smooth="no"/>
      <point x="317" y="656" type="line" smooth="no"/>
      <point x="154" y="638" type="line" smooth="no"/>
      <point x="143" y="780" type="line" smooth="no"/>
      <point x="469" y="820" type="line" smooth="no"/>
      <point x="638" y="363" type="line" smooth="yes"/>
      <point x="658" y="307"/>
      <point x="685" y="231"/>
      <point x="707" y="188" type="curve" smooth="no"/>
      <point x="746" y="372" type="line" smooth="no"/>
      <point x="839" y="751"/>
      <point x="932" y="1125"/>
      <point x="1025" y="1502" type="curve" smooth="no"/>
      <point x="1200" y="1502" type="line" smooth="no"/>
      <point x="799" y="-98" type="line" smooth="no"/>
    </contour>
  </outline>
</glyph>
<glyph name="integral" format="1">
  <advance width="1130"/>
  <unicode hex="222b"/>
  <outline>
    <contour>
      <point x="355" y="-380" type="curve" smooth="yes"/>
      <point x="298" y="-380"/>
      <point x="147" y="-350"/>
      <point x="112" y="-337" type="curve" smooth="no"/>
      <point x="153" y="-157" type="line" smooth="no"/>
      <point x="137" y="-150"/>
      <point x="217" y="-170"/>
      <point x="248" y="-170" type="curve" smooth="yes"/>
      <point x="334" y="-170"/>
      <point x="390" y="-143"/>
      <point x="390" y="36" type="curve" smooth="yes"/>
      <point x="390" y="1041" type="line" smooth="yes"/>
      <point x="390" y="1311"/>
      <point x="556" y="1461"/>
      <point x="782" y="1461" type="curve" smooth="yes"/>
      <point x="839" y="1461"/>
      <point x="986" y="1440"/>
      <point x="1019" y="1430" type="curve" smooth="no"/>
      <point x="982" y="1243" type="line" smooth="no"/>
      <point x="997" y="1236"/>
      <point x="915" y="1254"/>
      <point x="884" y="1254" type="curve" smooth="yes"/>
      <point x="760" y="1254"/>
      <point x="759" y="1113"/>
      <point x="759" y="1019" type="curve" smooth="yes"/>
      <point x="759" y="53" type="line" smooth="yes"/>
      <point x="759" y="-226"/>
      <point x="612" y="-380"/>
    </contour>
  </outline>
</glyph>
<glyph name="notequal" format="1">
  <advance width="1372"/>
  <unicode hex="2260"/>
  <outline>
    <contour>
      <point x="328" y="52" type="line" smooth="no"/>
      <point x="445" y="273" type="line" smooth="no"/>
      <point x="234" y="273" type="line" smooth="no"/>
      <point x="234" y="438" type="line" smooth="no"/>
      <point x="527" y="438" type="line" smooth="no"/>
      <point x="645" y="666" type="line" smooth="no"/>
      <point x="234" y="666" type="line" smooth="no"/>
      <point x="234" y="833" type="line" smooth="no"/>
      <point x="729" y="833" type="line" smooth="no"/>
      <point x="852" y="1075" type="line" smooth="no"/>
      <point x="1045" y="1063" type="line" smooth="no"/>
      <point x="925" y="833" type="line" smooth="no"/>
      <point x="1142" y="833" type="line" smooth="no"/>
      <point x="1142" y="666" type="line" smooth="no"/>
      <point x="842" y="666" type="line" smooth="no"/>
      <point x="722" y="438" type="line" smooth="no"/>
      <point x="1142" y="438" type="line" smooth="no"/>
      <point x="1142" y="273" type="line" smooth="no"/>
      <point x="641" y="273" type="line" smooth="no"/>
      <point x="520" y="39" type="line" smooth="no"/>
    </contour>
  </outline>
</glyph>
<glyph name="greaterequal" format="1">
  <advance width="1743"/>
  <unicode hex="2265"/>
  <outline>
    <contour>
      <point x="331" y="0" type="line" smooth="no"/>
      <point x="331" y="185" type="line" smooth="no"/>
      <point x="1478" y="185" type="line" smooth="no"/>
      <point x="1478" y="0" type="line" smooth="no"/>
    </contour>
    <contour>
      <point x="324" y="293" type="line" smooth="no"/>
      <point x="324" y="572" type="line" smooth="no"/>
      <point x="1057" y="749" type="line" smooth="no"/>
      <point x="324" y="921" type="line" smooth="no"/>
      <point x="324" y="1198" type="line" smooth="no"/>
      <point x="1484" y="868" type="line" smooth="no"/>
      <point x="1484" y="630" type="line" smooth="no"/>
    </contour>
  </outline>
</glyph>
<glyph name="lozenge" format="1">
  <advance width="1173"/>
  <unicode hex="25ca"/>
  <outline>
    <contour>
      <point x="586" y="177" type="line" smooth="no"/>
      <point x="837" y="671" type="line" smooth="no"/>
      <point x="589" y="1168" type="line" smooth="no"/>
      <point x="337" y="674" type="line" smooth="no"/>
    </contour>
    <contour>
      <point x="446" y="-30" type="line" smooth="no"/>
      <point x="75" y="672" type="line" smooth="no"/>
      <point x="450" y="1378" type="line" smooth="no"/>
      <point x="722" y="1378" type="line" smooth="no"/>
      <point x="1098" y="672" type="line" smooth="no"/>
      <point x="718" y="-30" type="line" smooth="no"/>
    </contour>
  </outline>
</glyph>
<glyph name=".notdef" format="1">
  <advance width="1024"/>
  <outline>
    <contour>
      <point x="204" y="-289" type="line" smooth="no"/>
      <point x="820" y="-289" type="line" smooth="no"/>
      <point x="820" y="1379" type="line" smooth="no"/>
      <point x="204" y="1379" type="line" smooth="no"/>
    </contour>
    <contour>
      <point x="102" y="-391" type="line" smooth="no"/>
      <point x="102" y="1481" type="line" smooth="no"/>
      <point x="922" y="1481" type="line" smooth="no"/>
      <point x="922" y="-391" type="line" smooth="no"/>
    </contour>
  </outline>
</glyph>
<glyph name="dblgravecmb" format="1">
  <advance width="900"/>
  <outline>
    <contour>
      <point x="496" y="1186" type="line" smooth="no"/>
      <point x="265" y="1534" type="line" smooth="no"/>
      <point x="644" y="1534" type="line" smooth="no"/>
      <point x="771" y="1186" type="line" smooth="no"/>
    </contour>
    <contour>
      <point x="-21" y="1186" type="line" smooth="no"/>
      <point x="-243" y="1534" type="line" smooth="no"/>
      <point x="143" y="1534" type="line" smooth="no"/>
      <point x="257" y="1186" type="line" smooth="no"/>
    </contour>
  </outline>
</glyph>
<glyph name="f_i" format="1">
  <advance width="1329"/>
  <outline>
    <contour>
      <point x="133" y="0" type="line"/>
      <point x="520" y="0" type="line"/>
      <point x="520" y="783" type="line"/>
      <point x="834" y="783" type="line"/>
      <point x="834" y="0" type="line"/>
      <point x="1224" y="0" type="line"/>
      <point x="1224" y="1035" type="line"/>
      <point x="513" y="1035" type="line"/>
      <point x="513" y="1137"/>
      <point x="561" y="1164"/>
      <point x="619" y="1164" type="curve" smooth="yes"/>
      <point x="646" y="1164"/>
      <point x="645" y="1163"/>
      <point x="726" y="1156" type="curve"/>
      <point x="726" y="1430" type="line"/>
      <point x="670" y="1436"/>
      <point x="618" y="1444"/>
      <point x="543" y="1444" type="curve" smooth="yes"/>
      <point x="275" y="1444"/>
      <point x="133" y="1328"/>
      <point x="133" y="1077" type="curve" smooth="yes"/>
      <point x="133" y="1035" type="line"/>
      <point x="21" y="1035" type="line"/>
      <point x="21" y="783" type="line"/>
      <point x="133" y="783" type="line"/>
    </contour>
    <contour>
      <point x="1028" y="1192" type="curve" smooth="yes"/>
      <point x="1176" y="1192"/>
      <point x="1250" y="1296"/>
      <point x="1250" y="1403" type="curve" smooth="yes"/>
      <point x="1250" y="1509"/>
      <point x="1177" y="1619"/>
      <point x="1028" y="1619" type="curve" smooth="yes"/>
      <point x="880" y="1619"/>
      <point x="807" y="1510"/>
      <point x="807" y="1405" type="curve" smooth="yes"/>
      <point x="807" y="1298"/>
      <point x="880" y="1192"/>
    </contour>
  </outline>
</glyph>
<glyph name="f_l" format="1">
  <advance width="1338"/>
  <outline>
    <contour>
      <point x="1223" y="3" type="curve" smooth="yes"/>
      <point x="1306" y="3" type="line"/>
      <point x="1306" y="255" type="line"/>
      <point x="1170" y="255"/>
      <point x="1197" y="365"/>
      <point x="1197" y="385" type="curve" smooth="yes"/>
      <point x="1197" y="1388" type="line"/>
      <point x="1197" y="1388"/>
      <point x="730" y="1444"/>
      <point x="565" y="1444" type="curve" smooth="yes"/>
      <point x="296" y="1444"/>
      <point x="133" y="1328"/>
      <point x="133" y="1077" type="curve" smooth="yes"/>
      <point x="133" y="1035" type="line"/>
      <point x="21" y="1035" type="line"/>
      <point x="21" y="783" type="line"/>
      <point x="133" y="783" type="line"/>
      <point x="133" y="0" type="line"/>
      <point x="520" y="0" type="line"/>
      <point x="520" y="783" type="line"/>
      <point x="728" y="783" type="line"/>
      <point x="728" y="1035" type="line"/>
      <point x="513" y="1035" type="line"/>
      <point x="513" y="1137"/>
      <point x="584" y="1164"/>
      <point x="642" y="1164" type="curve" smooth="yes"/>
      <point x="669" y="1164"/>
      <point x="729" y="1163"/>
      <point x="810" y="1156" type="curve"/>
      <point x="810" y="360" type="line" smooth="yes"/>
      <point x="810" y="163"/>
      <point x="828" y="3"/>
    </contour>
  </outline>
</glyph>
<glyph name="one.superior" format="1">
  <advance width="622"/>
  <outline>
    <contour>
      <point x="105" y="557" type="line"/>
      <point x="565" y="557" type="line"/>
      <point x="565" y="737" type="line"/>
      <point x="460" y="737" type="line"/>
      <point x="460" y="1381" type="line"/>
      <point x="244" y="1381" type="line"/>
      <point x="231" y="1303"/>
      <point x="156" y="1282"/>
      <point x="50" y="1275" type="curve"/>
      <point x="50" y="1125" type="line"/>
      <point x="216" y="1144" type="line"/>
      <point x="216" y="737" type="line"/>
      <point x="105" y="737" type="line"/>
    </contour>
  </outline>
</glyph>
<glyph name="three.superior" format="1">
  <advance width="677"/>
  <outline>
    <contour>
      <point x="325" y="551" type="curve" smooth="yes"/>
      <point x="545" y="551"/>
      <point x="663" y="661"/>
      <point x="663" y="824" type="curve" smooth="yes"/>
      <point x="663" y="923"/>
      <point x="589" y="967"/>
      <point x="518" y="988" type="curve"/>
      <point x="593" y="1021"/>
      <point x="648" y="1079"/>
      <point x="638" y="1201" type="curve" smooth="yes"/>
      <point x="624" y="1324"/>
      <point x="522" y="1392"/>
      <point x="329" y="1392" type="curve" smooth="yes"/>
      <point x="231" y="1392"/>
      <point x="112" y="1351"/>
      <point x="61" y="1315" type="curve"/>
      <point x="61" y="1106" type="line"/>
      <point x="110" y="1106" type="line"/>
      <point x="185" y="1177"/>
      <point x="247" y="1203"/>
      <point x="291" y="1203" type="curve" smooth="yes"/>
      <point x="302" y="1203"/>
      <point x="392" y="1198"/>
      <point x="392" y="1132" type="curve" smooth="yes"/>
      <point x="392" y="1053"/>
      <point x="319" y="1065"/>
      <point x="251" y="1065" type="curve" smooth="yes"/>
      <point x="235" y="1065" type="line"/>
      <point x="235" y="918" type="line"/>
      <point x="318" y="918" type="line" smooth="yes"/>
      <point x="386" y="918"/>
      <point x="419" y="916"/>
      <point x="419" y="849" type="curve" smooth="yes"/>
      <point x="419" y="741"/>
      <point x="314" y="736"/>
      <point x="267" y="739" type="curve" smooth="yes"/>
      <point x="225" y="742"/>
      <point x="160" y="765"/>
      <point x="95" y="830" type="curve"/>
      <point x="61" y="830" type="line"/>
      <point x="61" y="619" type="line"/>
      <point x="128" y="572"/>
      <point x="200" y="551"/>
    </contour>
  </outline>
</glyph>
<glyph name="two.superior" format="1">
  <advance width="768"/>
  <outline>
    <contour>
      <point x="80" y="556" type="line"/>
      <point x="729" y="556" type="line"/>
      <point x="729" y="743" type="line"/>
      <point x="411" y="743" type="line"/>
      <point x="477" y="772"/>
      <point x="689" y="962"/>
      <point x="689" y="1128" type="curve" smooth="yes"/>
      <point x="689" y="1288"/>
      <point x="574" y="1392"/>
      <point x="367" y="1392" type="curve" smooth="yes"/>
      <point x="266" y="1392"/>
      <point x="138" y="1351"/>
      <point x="93" y="1315" type="curve"/>
      <point x="146" y="1138" type="line"/>
      <point x="175" y="1150"/>
      <point x="257" y="1188"/>
      <point x="340" y="1188" type="curve" smooth="yes"/>
      <point x="369" y="1188"/>
      <point x="428" y="1177"/>
      <point x="428" y="1096" type="curve" smooth="yes"/>
      <point x="428" y="969"/>
      <point x="151" y="752"/>
      <point x="80" y="703" type="curve"/>
    </contour>
  </outline>
</glyph>
